<svg width="56" height="56" viewBox="0 0 56 56" fill="none" xmlns="http://www.w3.org/2000/svg">
<rect width="56" height="56" rx="8" fill="#040E1B"/>
<path fill-rule="evenodd" clip-rule="evenodd" d="M35.6417 16.0717L34.0564 24.1848H23.447L23.4481 24.179L18.6791 24.1831C18.9913 24.0897 21.2176 23.0592 23.5265 21.9904C23.6577 21.9297 23.7891 21.8688 23.9205 21.808L25.6805 12.9738C25.7378 12.6327 25.6805 12.3536 25.5087 12.1365C25.4848 12.1063 25.4595 12.0782 25.4328 12.0522C22.5012 13.5404 19.4995 15.063 17.3236 16.1643L12.0215 43.2109C11.9695 43.5207 12.0119 43.7793 12.1488 43.9868C15.8475 42.1101 19.2191 40.402 20.39 39.8156L22.0295 31.6278H31.6278L37.0465 31.5841C36.7369 31.6871 34.5278 32.8154 32.2366 33.9856L32.2364 33.9857L32.121 34.0446L30.3195 43.2109C30.2663 43.5273 30.2994 43.7903 30.4187 44C33.2253 42.5749 36.2568 41.0365 38.6798 39.8089L43.9785 12.9738C44.0358 12.6327 43.9785 12.3536 43.8067 12.1365C43.7658 12.0849 43.7209 12.0394 43.6719 12C40.7401 13.4882 37.7656 14.997 35.6417 16.0717Z" fill="white"/>
</svg>
