<svg width="63" height="63" viewBox="0 0 63 63" fill="none" xmlns="http://www.w3.org/2000/svg">
<path fill-rule="evenodd" clip-rule="evenodd" d="M46.5445 8.01616L43.4235 23.9888H22.5362L22.5385 23.9775L13.1495 23.9856C13.7641 23.8017 18.1471 21.7728 22.6927 19.6686C22.951 19.5491 23.2098 19.4293 23.4685 19.3095L26.9336 1.91725C27.0463 1.24564 26.9336 0.696135 26.5953 0.268747C26.5482 0.20927 26.4984 0.153932 26.4459 0.102732C20.6743 3.0326 14.7646 6.03038 10.4807 8.19844L0.0422819 61.4464C-0.0601 62.0563 0.0234497 62.5654 0.292931 62.9739C7.57476 59.2794 14.2127 55.9164 16.5177 54.762L19.7456 38.6422H38.6422L49.3102 38.5561C48.7008 38.759 44.3516 40.9802 39.8409 43.284L39.8404 43.2843L39.6132 43.4003L36.0664 61.4464C35.9619 62.0693 36.027 62.5872 36.2619 63C41.7872 60.1944 47.7557 57.1656 52.5258 54.7488L62.9577 1.91725C63.0705 1.24564 62.9577 0.696135 62.6195 0.268747C62.539 0.167071 62.4505 0.0774887 62.3541 0C56.5821 2.92997 50.7261 5.90026 46.5445 8.01616Z" fill="white"/>
</svg>
