<svg width="16" height="16" viewBox="0 0 16 16" fill="none" xmlns="http://www.w3.org/2000/svg">
<path fill-rule="evenodd" clip-rule="evenodd" d="M11.8208 2.03585L11.0282 6.0924H5.72349L5.72407 6.08951L3.33957 6.09157C3.49564 6.04487 4.60878 5.5296 5.76323 4.9952C5.82883 4.96484 5.89456 4.93441 5.96025 4.90401L6.84027 0.48692C6.8689 0.316352 6.84027 0.176796 6.75436 0.0682533C6.74241 0.0531479 6.72976 0.0390936 6.71642 0.0260904C5.25062 0.770184 3.74973 1.53153 2.66178 2.08214L0.0107382 15.6054C-0.0152635 15.7603 0.00595551 15.8896 0.0743953 15.9934C1.92375 15.0551 3.60956 14.201 4.19498 13.9078L5.01476 9.81389H9.81388L12.5232 9.79203C12.3685 9.84355 11.2639 10.4077 10.1183 10.9928L10.1182 10.9928L10.0605 11.0223L9.15973 15.6054C9.13317 15.7636 9.14972 15.8952 9.20937 16C10.6126 15.2875 12.1284 14.5182 13.3399 13.9045L15.9893 0.48692C16.0179 0.316352 15.9893 0.176796 15.9034 0.0682533C15.8829 0.0424307 15.8605 0.0196797 15.836 0C14.37 0.744121 12.8828 1.49848 11.8208 2.03585Z" fill="#7B8FAB"/>
</svg>
