<svg width="230" height="49" viewBox="0 0 230 49" fill="none" xmlns="http://www.w3.org/2000/svg">
  <path fill-rule="evenodd" clip-rule="evenodd"
    d="M24.5 48C37.4787 48 48 37.4787 48 24.5C48 11.5213 37.4787 1 24.5 1C11.5213 1 1 11.5213 1 24.5C1 37.4787 11.5213 48 24.5 48ZM29.9404 20.9542L31.4138 13.414C33.3878 12.4152 36.1522 11.013 38.877 9.62987C38.9225 9.66645 38.9643 9.70873 39.0022 9.75673C39.1619 9.95848 39.2151 10.2179 39.1619 10.5349L34.2374 35.475C31.9855 36.6159 29.168 38.0457 26.5597 39.3701C26.4488 39.1752 26.4181 38.9308 26.4674 38.6367L28.1417 30.1177L28.249 30.063C30.3784 28.9754 32.4317 27.9267 32.7194 27.831L27.6832 27.8716H18.7629L17.2391 35.4812C16.1509 36.0262 13.0174 37.6137 9.57991 39.3578C9.45269 39.165 9.41325 38.9246 9.46158 38.6367L14.3892 13.5001C16.4115 12.4766 19.2013 11.0615 21.9259 9.67836C21.9507 9.70253 21.9742 9.72865 21.9964 9.75673C22.1561 9.95848 22.2093 10.2179 22.1561 10.5349L20.5203 18.7453L20.1541 18.9148C18.0083 19.9081 15.9392 20.8659 15.6491 20.9527L20.0813 20.9488L20.0802 20.9542H29.9404Z"
    fill="white" />
  <path
    d="M60.5889 31C60.4818 31 60.3926 30.9643 60.3212 30.8929C60.2498 30.8097 60.2141 30.7204 60.2141 30.6253C60.2141 30.5658 60.2201 30.5123 60.232 30.4647L64.4789 18.9909C64.5146 18.86 64.5859 18.747 64.693 18.6518C64.8001 18.5567 64.9488 18.5091 65.1391 18.5091H67.4232C67.6135 18.5091 67.7622 18.5567 67.8693 18.6518C67.9763 18.747 68.0477 18.86 68.0834 18.9909L72.3303 30.4647C72.3422 30.5123 72.3482 30.5658 72.3482 30.6253C72.3482 30.7204 72.3125 30.8097 72.2411 30.8929C72.1697 30.9643 72.0805 31 71.9734 31H70.1176C69.9392 31 69.8083 30.9584 69.7251 30.8751C69.6418 30.7918 69.5883 30.7145 69.5645 30.6431L68.7972 28.6446H63.7651L62.9978 30.6431C62.974 30.7145 62.9205 30.7918 62.8372 30.8751C62.7539 30.9584 62.6231 31 62.4446 31H60.5889ZM64.4254 26.3427H68.1191L66.2811 21.2036L64.4254 26.3427ZM74.1344 31C74.0035 31 73.8965 30.9584 73.8132 30.8751C73.7299 30.7918 73.6883 30.6848 73.6883 30.5539V18.7768C73.6883 18.6459 73.7299 18.5388 73.8132 18.4556C73.8965 18.3723 74.0035 18.3306 74.1344 18.3306H75.9188C76.0378 18.3306 76.1389 18.3723 76.2222 18.4556C76.3054 18.5388 76.3471 18.6459 76.3471 18.7768V30.5539C76.3471 30.6848 76.3054 30.7918 76.2222 30.8751C76.1389 30.9584 76.0378 31 75.9188 31H74.1344ZM79.0485 31C78.9176 31 78.8106 30.9584 78.7273 30.8751C78.644 30.7918 78.6024 30.6848 78.6024 30.5539V18.7768C78.6024 18.6459 78.644 18.5388 78.7273 18.4556C78.8106 18.3723 78.9176 18.3306 79.0485 18.3306H80.8329C80.9519 18.3306 81.053 18.3723 81.1363 18.4556C81.2195 18.5388 81.2612 18.6459 81.2612 18.7768V30.5539C81.2612 30.6848 81.2195 30.7918 81.1363 30.8751C81.053 30.9584 80.9519 31 80.8329 31H79.0485ZM88.0972 31C87.9663 31 87.8592 30.9584 87.776 30.8751C87.6927 30.7918 87.6511 30.6848 87.6511 30.5539V18.9552C87.6511 18.8243 87.6927 18.7173 87.776 18.634C87.8592 18.5507 87.9663 18.5091 88.0972 18.5091H92.8259C94.3129 18.5091 95.4846 18.8541 96.3412 19.5441C97.1977 20.2221 97.6259 21.2036 97.6259 22.4883C97.6259 23.3568 97.4178 24.0824 97.0014 24.6653C96.585 25.2482 96.0259 25.6824 95.324 25.9679L97.8401 30.429C97.8758 30.5004 97.8936 30.5658 97.8936 30.6253C97.8936 30.7204 97.8579 30.8097 97.7865 30.8929C97.7152 30.9643 97.6259 31 97.5189 31H95.5382C95.324 31 95.1634 30.9465 95.0564 30.8394C94.9493 30.7204 94.872 30.6134 94.8244 30.5182L92.6474 26.4319H90.4883V30.5539C90.4883 30.6848 90.4466 30.7918 90.3634 30.8751C90.2801 30.9584 90.173 31 90.0422 31H88.0972ZM90.4883 24.1657H92.7723C93.4266 24.1657 93.9084 24.017 94.2177 23.7196C94.5389 23.4222 94.6995 23.0058 94.6995 22.4705C94.6995 21.9352 94.5448 21.5129 94.2355 21.2036C93.9262 20.8943 93.4385 20.7396 92.7723 20.7396H90.4883V24.1657ZM100.046 31C99.9274 31 99.8263 30.9584 99.743 30.8751C99.6597 30.7918 99.6181 30.6848 99.6181 30.5539V22.1671C99.6181 22.0363 99.6597 21.9292 99.743 21.8459C99.8263 21.7627 99.9274 21.721 100.046 21.721H101.831C101.962 21.721 102.069 21.7627 102.152 21.8459C102.235 21.9292 102.277 22.0363 102.277 22.1671V30.5539C102.277 30.6848 102.235 30.7918 102.152 30.8751C102.069 30.9584 101.962 31 101.831 31H100.046ZM99.9928 20.2935C99.8738 20.2935 99.7727 20.2519 99.6894 20.1686C99.6062 20.0853 99.5645 19.9783 99.5645 19.8474V18.4199C99.5645 18.289 99.6062 18.1819 99.6894 18.0987C99.7727 18.0035 99.8738 17.9559 99.9928 17.9559H101.866C101.997 17.9559 102.104 18.0035 102.188 18.0987C102.283 18.1819 102.33 18.289 102.33 18.4199V19.8474C102.33 19.9783 102.283 20.0853 102.188 20.1686C102.104 20.2519 101.997 20.2935 101.866 20.2935H99.9928ZM108.869 34.9257C107.988 34.9257 107.257 34.8068 106.674 34.5688C106.091 34.3428 105.627 34.0632 105.282 33.7302C104.949 33.409 104.711 33.0878 104.568 32.7666C104.426 32.4454 104.348 32.1956 104.336 32.0171C104.324 31.8863 104.366 31.7792 104.461 31.6959C104.556 31.6126 104.663 31.571 104.782 31.571H106.692C106.799 31.571 106.888 31.5948 106.959 31.6424C107.043 31.7019 107.108 31.797 107.156 31.9279C107.215 32.0706 107.298 32.2194 107.406 32.374C107.513 32.5405 107.673 32.6774 107.887 32.7844C108.113 32.8915 108.411 32.945 108.78 32.945C109.196 32.945 109.541 32.8855 109.814 32.7666C110.088 32.6476 110.29 32.4454 110.421 32.1599C110.564 31.8744 110.635 31.4877 110.635 31V29.8044C110.35 30.1137 109.987 30.3695 109.547 30.5717C109.119 30.774 108.589 30.8751 107.959 30.8751C107.34 30.8751 106.793 30.7799 106.317 30.5896C105.853 30.3874 105.466 30.1078 105.157 29.7509C104.848 29.3821 104.61 28.942 104.443 28.4304C104.277 27.9189 104.182 27.3419 104.158 26.6996C104.146 26.3784 104.146 26.0631 104.158 25.7538C104.182 25.1352 104.277 24.5702 104.443 24.0586C104.61 23.5471 104.848 23.1069 105.157 22.7382C105.466 22.3575 105.853 22.066 106.317 21.8638C106.793 21.6497 107.34 21.5426 107.959 21.5426C108.613 21.5426 109.172 21.6675 109.636 21.9173C110.1 22.1671 110.481 22.4764 110.778 22.8452V22.1671C110.778 22.0482 110.82 21.9471 110.903 21.8638C110.986 21.7686 111.087 21.721 111.206 21.721H112.955C113.074 21.721 113.175 21.7686 113.258 21.8638C113.354 21.9471 113.401 22.0482 113.401 22.1671L113.419 30.7502C113.419 31.6424 113.246 32.3978 112.902 33.0164C112.557 33.635 112.045 34.1049 111.367 34.4261C110.701 34.7592 109.868 34.9257 108.869 34.9257ZM108.78 28.7873C109.208 28.7873 109.553 28.6922 109.814 28.5018C110.088 28.2996 110.29 28.0498 110.421 27.7524C110.552 27.4431 110.623 27.1219 110.635 26.7888C110.647 26.6579 110.653 26.4735 110.653 26.2356C110.653 25.9858 110.647 25.7955 110.635 25.6646C110.623 25.3315 110.552 25.0163 110.421 24.7189C110.29 24.4096 110.088 24.1597 109.814 23.9694C109.553 23.7791 109.208 23.6839 108.78 23.6839C108.327 23.6839 107.971 23.785 107.709 23.9872C107.447 24.1776 107.257 24.4334 107.138 24.7545C107.019 25.0757 106.948 25.4267 106.924 25.8074C106.912 26.0929 106.912 26.3724 106.924 26.646C106.948 27.0386 107.019 27.3955 107.138 27.7167C107.257 28.0379 107.447 28.2996 107.709 28.5018C107.971 28.6922 108.327 28.7873 108.78 28.7873ZM116.113 31C115.983 31 115.876 30.9584 115.792 30.8751C115.709 30.7918 115.667 30.6848 115.667 30.5539V18.7768C115.667 18.6459 115.709 18.5388 115.792 18.4556C115.876 18.3723 115.983 18.3306 116.113 18.3306H118.041C118.16 18.3306 118.261 18.3723 118.344 18.4556C118.427 18.5388 118.469 18.6459 118.469 18.7768V22.7917C118.79 22.411 119.183 22.1077 119.647 21.8816C120.111 21.6556 120.67 21.5426 121.324 21.5426C122.026 21.5426 122.644 21.7032 123.18 22.0244C123.727 22.3337 124.155 22.7917 124.465 23.3984C124.774 23.9932 124.928 24.7189 124.928 25.5754V30.5539C124.928 30.6848 124.887 30.7918 124.804 30.8751C124.72 30.9584 124.613 31 124.482 31H122.537C122.418 31 122.317 30.9584 122.234 30.8751C122.151 30.7918 122.109 30.6848 122.109 30.5539V25.6824C122.109 25.0519 121.954 24.5642 121.645 24.2192C121.336 23.8623 120.896 23.6839 120.325 23.6839C119.766 23.6839 119.314 23.8623 118.969 24.2192C118.635 24.5642 118.469 25.0519 118.469 25.6824V30.5539C118.469 30.6848 118.427 30.7918 118.344 30.8751C118.261 30.9584 118.16 31 118.041 31H116.113ZM131.42 31C130.683 31 130.052 30.881 129.529 30.6431C129.005 30.3933 128.607 30.0126 128.333 29.5011C128.072 28.9896 127.941 28.3472 127.941 27.5739V23.8266H126.549C126.418 23.8266 126.311 23.785 126.228 23.7017C126.144 23.6185 126.103 23.5114 126.103 23.3805V22.1671C126.103 22.0363 126.144 21.9292 126.228 21.8459C126.311 21.7627 126.418 21.721 126.549 21.721H127.941V18.7768C127.941 18.6459 127.982 18.5388 128.066 18.4556C128.161 18.3723 128.268 18.3306 128.387 18.3306H130.136C130.266 18.3306 130.374 18.3723 130.457 18.4556C130.54 18.5388 130.582 18.6459 130.582 18.7768V21.721H132.812C132.931 21.721 133.032 21.7627 133.116 21.8459C133.199 21.9292 133.24 22.0363 133.24 22.1671V23.3805C133.24 23.5114 133.199 23.6185 133.116 23.7017C133.032 23.785 132.931 23.8266 132.812 23.8266H130.582V27.3598C130.582 27.8118 130.659 28.1687 130.814 28.4304C130.98 28.6803 131.266 28.8052 131.67 28.8052H132.973C133.092 28.8052 133.193 28.8468 133.276 28.9301C133.359 29.0134 133.401 29.1145 133.401 29.2334V30.5539C133.401 30.6848 133.359 30.7918 133.276 30.8751C133.193 30.9584 133.092 31 132.973 31H131.42ZM138.616 31.1784C137.878 31.1784 137.242 31.0952 136.707 30.9286C136.183 30.7502 135.755 30.5361 135.422 30.2862C135.101 30.0364 134.857 29.7866 134.69 29.5368C134.536 29.2751 134.452 29.055 134.44 28.8765C134.428 28.7457 134.47 28.6386 134.565 28.5554C134.66 28.4721 134.756 28.4304 134.851 28.4304H136.582C136.617 28.4304 136.653 28.4364 136.689 28.4483C136.724 28.4602 136.76 28.4899 136.796 28.5375C136.95 28.6446 137.111 28.7695 137.278 28.9122C137.444 29.0431 137.634 29.1561 137.849 29.2513C138.075 29.3464 138.354 29.394 138.687 29.394C139.08 29.394 139.413 29.3167 139.687 29.1621C139.96 28.9955 140.097 28.7635 140.097 28.4661C140.097 28.252 140.032 28.0736 139.901 27.9308C139.782 27.7881 139.55 27.6572 139.205 27.5382C138.86 27.4193 138.348 27.2884 137.67 27.1457C137.028 27.0029 136.481 26.8126 136.029 26.5746C135.576 26.3367 135.237 26.0393 135.011 25.6824C134.785 25.3137 134.672 24.8735 134.672 24.362C134.672 23.898 134.815 23.4519 135.101 23.0237C135.398 22.5954 135.832 22.2445 136.403 21.9709C136.974 21.6853 137.688 21.5426 138.545 21.5426C139.199 21.5426 139.77 21.6259 140.258 21.7924C140.757 21.9471 141.174 22.1493 141.507 22.3991C141.84 22.637 142.09 22.8869 142.256 23.1486C142.435 23.3984 142.53 23.6185 142.542 23.8088C142.554 23.9278 142.518 24.0289 142.435 24.1122C142.351 24.1954 142.256 24.2371 142.149 24.2371H140.561C140.501 24.2371 140.448 24.2311 140.4 24.2192C140.353 24.1954 140.311 24.1657 140.275 24.13C140.133 24.0348 139.984 23.9278 139.829 23.8088C139.687 23.6779 139.514 23.5649 139.312 23.4698C139.11 23.3746 138.848 23.327 138.527 23.327C138.134 23.327 137.831 23.4162 137.617 23.5947C137.414 23.7612 137.313 23.9754 137.313 24.2371C137.313 24.4036 137.367 24.5583 137.474 24.701C137.581 24.8438 137.801 24.9746 138.134 25.0936C138.467 25.2125 138.973 25.3375 139.651 25.4683C140.46 25.6111 141.102 25.8252 141.578 26.1107C142.054 26.3962 142.393 26.7293 142.595 27.11C142.809 27.4788 142.916 27.8773 142.916 28.3055C142.916 28.8646 142.75 29.3643 142.417 29.8044C142.084 30.2327 141.596 30.5717 140.953 30.8216C140.323 31.0595 139.544 31.1784 138.616 31.1784ZM149.21 31C149.079 31 148.972 30.9584 148.889 30.8751C148.805 30.7918 148.764 30.6848 148.764 30.5539V18.9552C148.764 18.8243 148.805 18.7173 148.889 18.634C148.972 18.5507 149.079 18.5091 149.21 18.5091H153.939C155.426 18.5091 156.597 18.8541 157.454 19.5441C158.31 20.2221 158.739 21.2036 158.739 22.4883C158.739 23.3568 158.531 24.0824 158.114 24.6653C157.698 25.2482 157.139 25.6824 156.437 25.9679L158.953 30.429C158.989 30.5004 159.006 30.5658 159.006 30.6253C159.006 30.7204 158.971 30.8097 158.899 30.8929C158.828 30.9643 158.739 31 158.632 31H156.651C156.437 31 156.276 30.9465 156.169 30.8394C156.062 30.7204 155.985 30.6134 155.937 30.5182L153.76 26.4319H151.601V30.5539C151.601 30.6848 151.559 30.7918 151.476 30.8751C151.393 30.9584 151.286 31 151.155 31H149.21ZM151.601 24.1657H153.885C154.539 24.1657 155.021 24.017 155.33 23.7196C155.652 23.4222 155.812 23.0058 155.812 22.4705C155.812 21.9352 155.658 21.5129 155.348 21.2036C155.039 20.8943 154.551 20.7396 153.885 20.7396H151.601V24.1657ZM164.749 31.1784C163.381 31.1784 162.292 30.7978 161.483 30.0364C160.686 29.2751 160.264 28.1687 160.216 26.7174C160.216 26.6222 160.216 26.4973 160.216 26.3427C160.216 26.1761 160.216 26.0453 160.216 25.9501C160.264 25.0341 160.472 24.249 160.841 23.5947C161.21 22.9285 161.727 22.4229 162.393 22.0779C163.059 21.721 163.839 21.5426 164.731 21.5426C165.73 21.5426 166.563 21.7508 167.229 22.1671C167.907 22.5716 168.413 23.1307 168.746 23.8445C169.091 24.5464 169.263 25.3553 169.263 26.2713V26.6817C169.263 26.8007 169.216 26.9018 169.121 26.9851C169.037 27.0683 168.936 27.11 168.817 27.11H162.982C162.982 27.1219 162.982 27.1457 162.982 27.1814C162.982 27.2051 162.982 27.2289 162.982 27.2527C162.994 27.6334 163.065 27.9843 163.196 28.3055C163.339 28.6148 163.535 28.8646 163.785 29.055C164.047 29.2453 164.356 29.3405 164.713 29.3405C165.01 29.3405 165.254 29.2989 165.445 29.2156C165.635 29.1323 165.79 29.0312 165.909 28.9122C166.039 28.7933 166.135 28.6922 166.194 28.6089C166.301 28.4899 166.384 28.4185 166.444 28.3948C166.515 28.3591 166.622 28.3412 166.765 28.3412H168.621C168.74 28.3412 168.835 28.3769 168.906 28.4483C168.99 28.5078 169.025 28.597 169.013 28.7159C169.002 28.9063 168.9 29.1442 168.71 29.4297C168.532 29.7033 168.264 29.9769 167.907 30.2505C167.55 30.5123 167.104 30.7323 166.569 30.9108C166.045 31.0892 165.439 31.1784 164.749 31.1784ZM162.982 25.4862H166.48V25.4505C166.48 25.0222 166.408 24.6534 166.265 24.3441C166.135 24.0229 165.938 23.7731 165.677 23.5947C165.415 23.4162 165.1 23.327 164.731 23.327C164.362 23.327 164.047 23.4162 163.785 23.5947C163.523 23.7731 163.321 24.0229 163.178 24.3441C163.048 24.6534 162.982 25.0222 162.982 25.4505V25.4862ZM174.705 31.1784C173.967 31.1784 173.331 31.0952 172.796 30.9286C172.272 30.7502 171.844 30.5361 171.511 30.2862C171.19 30.0364 170.946 29.7866 170.779 29.5368C170.625 29.2751 170.541 29.055 170.529 28.8765C170.518 28.7457 170.559 28.6386 170.654 28.5554C170.75 28.4721 170.845 28.4304 170.94 28.4304H172.671C172.706 28.4304 172.742 28.4364 172.778 28.4483C172.814 28.4602 172.849 28.4899 172.885 28.5375C173.04 28.6446 173.2 28.7695 173.367 28.9122C173.533 29.0431 173.724 29.1561 173.938 29.2513C174.164 29.3464 174.443 29.394 174.776 29.394C175.169 29.394 175.502 29.3167 175.776 29.1621C176.049 28.9955 176.186 28.7635 176.186 28.4661C176.186 28.252 176.121 28.0736 175.99 27.9308C175.871 27.7881 175.639 27.6572 175.294 27.5382C174.949 27.4193 174.437 27.2884 173.759 27.1457C173.117 27.0029 172.57 26.8126 172.118 26.5746C171.666 26.3367 171.327 26.0393 171.101 25.6824C170.874 25.3137 170.761 24.8735 170.761 24.362C170.761 23.898 170.904 23.4519 171.19 23.0237C171.487 22.5954 171.921 22.2445 172.492 21.9709C173.063 21.6853 173.777 21.5426 174.634 21.5426C175.288 21.5426 175.859 21.6259 176.347 21.7924C176.846 21.9471 177.263 22.1493 177.596 22.3991C177.929 22.637 178.179 22.8869 178.345 23.1486C178.524 23.3984 178.619 23.6185 178.631 23.8088C178.643 23.9278 178.607 24.0289 178.524 24.1122C178.44 24.1954 178.345 24.2371 178.238 24.2371H176.65C176.591 24.2371 176.537 24.2311 176.489 24.2192C176.442 24.1954 176.4 24.1657 176.365 24.13C176.222 24.0348 176.073 23.9278 175.918 23.8088C175.776 23.6779 175.603 23.5649 175.401 23.4698C175.199 23.3746 174.937 23.327 174.616 23.327C174.223 23.327 173.92 23.4162 173.706 23.5947C173.504 23.7612 173.402 23.9754 173.402 24.2371C173.402 24.4036 173.456 24.5583 173.563 24.701C173.67 24.8438 173.89 24.9746 174.223 25.0936C174.556 25.2125 175.062 25.3375 175.74 25.4683C176.549 25.6111 177.191 25.8252 177.667 26.1107C178.143 26.3962 178.482 26.7293 178.684 27.11C178.898 27.4788 179.005 27.8773 179.005 28.3055C179.005 28.8646 178.839 29.3643 178.506 29.8044C178.173 30.2327 177.685 30.5717 177.043 30.8216C176.412 31.0595 175.633 31.1784 174.705 31.1784ZM184.858 31.1784C183.49 31.1784 182.402 30.7978 181.593 30.0364C180.796 29.2751 180.373 28.1687 180.326 26.7174C180.326 26.6222 180.326 26.4973 180.326 26.3427C180.326 26.1761 180.326 26.0453 180.326 25.9501C180.373 25.0341 180.582 24.249 180.95 23.5947C181.319 22.9285 181.837 22.4229 182.503 22.0779C183.169 21.721 183.948 21.5426 184.84 21.5426C185.84 21.5426 186.672 21.7508 187.339 22.1671C188.017 22.5716 188.522 23.1307 188.855 23.8445C189.2 24.5464 189.373 25.3553 189.373 26.2713V26.6817C189.373 26.8007 189.325 26.9018 189.23 26.9851C189.147 27.0683 189.046 27.11 188.927 27.11H183.092C183.092 27.1219 183.092 27.1457 183.092 27.1814C183.092 27.2051 183.092 27.2289 183.092 27.2527C183.104 27.6334 183.175 27.9843 183.306 28.3055C183.449 28.6148 183.645 28.8646 183.895 29.055C184.156 29.2453 184.466 29.3405 184.823 29.3405C185.12 29.3405 185.364 29.2989 185.554 29.2156C185.744 29.1323 185.899 29.0312 186.018 28.9122C186.149 28.7933 186.244 28.6922 186.304 28.6089C186.411 28.4899 186.494 28.4185 186.553 28.3948C186.625 28.3591 186.732 28.3412 186.875 28.3412H188.73C188.849 28.3412 188.945 28.3769 189.016 28.4483C189.099 28.5078 189.135 28.597 189.123 28.7159C189.111 28.9063 189.01 29.1442 188.82 29.4297C188.641 29.7033 188.374 29.9769 188.017 30.2505C187.66 30.5123 187.214 30.7323 186.678 30.9108C186.155 31.0892 185.548 31.1784 184.858 31.1784ZM183.092 25.4862H186.589V25.4505C186.589 25.0222 186.518 24.6534 186.375 24.3441C186.244 24.0229 186.048 23.7731 185.786 23.5947C185.524 23.4162 185.209 23.327 184.84 23.327C184.472 23.327 184.156 23.4162 183.895 23.5947C183.633 23.7731 183.431 24.0229 183.288 24.3441C183.157 24.6534 183.092 25.0222 183.092 25.4505V25.4862ZM191.585 31C191.466 31 191.365 30.9584 191.281 30.8751C191.198 30.7918 191.156 30.6848 191.156 30.5539V22.1671C191.156 22.0482 191.198 21.9471 191.281 21.8638C191.365 21.7686 191.466 21.721 191.585 21.721H193.333C193.452 21.721 193.554 21.7686 193.637 21.8638C193.732 21.9471 193.78 22.0482 193.78 22.1671V22.8809C194.077 22.5121 194.44 22.2266 194.868 22.0244C195.308 21.8222 195.814 21.721 196.385 21.721H197.152C197.271 21.721 197.372 21.7627 197.455 21.8459C197.539 21.9292 197.58 22.0363 197.58 22.1671V23.7017C197.58 23.8326 197.539 23.9397 197.455 24.0229C197.372 24.1062 197.271 24.1478 197.152 24.1478H195.582C195.058 24.1478 194.648 24.2965 194.351 24.5939C194.053 24.8795 193.905 25.2899 193.905 25.8252V30.5539C193.905 30.6848 193.863 30.7918 193.78 30.8751C193.696 30.9584 193.589 31 193.458 31H191.585ZM202.194 31C202.016 31 201.879 30.9584 201.784 30.8751C201.701 30.7799 201.629 30.6729 201.57 30.5539L198.215 22.2742C198.191 22.2266 198.179 22.1731 198.179 22.1136C198.179 22.0065 198.215 21.9173 198.287 21.8459C198.37 21.7627 198.465 21.721 198.572 21.721H200.303C200.458 21.721 200.571 21.7627 200.642 21.8459C200.725 21.9292 200.779 22.0065 200.803 22.0779L202.997 27.9665L205.192 22.0779C205.228 22.0065 205.281 21.9292 205.353 21.8459C205.436 21.7627 205.549 21.721 205.692 21.721H207.423C207.53 21.721 207.619 21.7627 207.69 21.8459C207.774 21.9173 207.815 22.0065 207.815 22.1136C207.815 22.1731 207.809 22.2266 207.797 22.2742L204.425 30.5539C204.377 30.6729 204.306 30.7799 204.211 30.8751C204.116 30.9584 203.979 31 203.8 31H202.194ZM213.123 31.1784C211.755 31.1784 210.667 30.7978 209.858 30.0364C209.061 29.2751 208.638 28.1687 208.591 26.7174C208.591 26.6222 208.591 26.4973 208.591 26.3427C208.591 26.1761 208.591 26.0453 208.591 25.9501C208.638 25.0341 208.846 24.249 209.215 23.5947C209.584 22.9285 210.101 22.4229 210.768 22.0779C211.434 21.721 212.213 21.5426 213.105 21.5426C214.105 21.5426 214.937 21.7508 215.603 22.1671C216.281 22.5716 216.787 23.1307 217.12 23.8445C217.465 24.5464 217.638 25.3553 217.638 26.2713V26.6817C217.638 26.8007 217.59 26.9018 217.495 26.9851C217.412 27.0683 217.311 27.11 217.192 27.11H211.357C211.357 27.1219 211.357 27.1457 211.357 27.1814C211.357 27.2051 211.357 27.2289 211.357 27.2527C211.368 27.6334 211.44 27.9843 211.571 28.3055C211.713 28.6148 211.91 28.8646 212.159 29.055C212.421 29.2453 212.731 29.3405 213.087 29.3405C213.385 29.3405 213.629 29.2989 213.819 29.2156C214.009 29.1323 214.164 29.0312 214.283 28.9122C214.414 28.7933 214.509 28.6922 214.568 28.6089C214.676 28.4899 214.759 28.4185 214.818 28.3948C214.89 28.3591 214.997 28.3412 215.139 28.3412H216.995C217.114 28.3412 217.209 28.3769 217.281 28.4483C217.364 28.5078 217.4 28.597 217.388 28.7159C217.376 28.9063 217.275 29.1442 217.084 29.4297C216.906 29.7033 216.638 29.9769 216.281 30.2505C215.925 30.5123 215.479 30.7323 214.943 30.9108C214.42 31.0892 213.813 31.1784 213.123 31.1784ZM211.357 25.4862H214.854V25.4505C214.854 25.0222 214.783 24.6534 214.64 24.3441C214.509 24.0229 214.313 23.7731 214.051 23.5947C213.789 23.4162 213.474 23.327 213.105 23.327C212.736 23.327 212.421 23.4162 212.159 23.5947C211.898 23.7731 211.696 24.0229 211.553 24.3441C211.422 24.6534 211.357 25.0222 211.357 25.4505V25.4862ZM222.865 31.1784C222.27 31.1784 221.741 31.0833 221.277 30.8929C220.813 30.6907 220.421 30.4052 220.099 30.0364C219.778 29.6557 219.534 29.2096 219.368 28.6981C219.201 28.1747 219.1 27.5977 219.064 26.9672C219.053 26.7412 219.047 26.539 219.047 26.3605C219.047 26.1702 219.053 25.9679 219.064 25.7538C219.088 25.1352 219.183 24.5702 219.35 24.0586C219.528 23.5471 219.772 23.1069 220.082 22.7382C220.403 22.3575 220.795 22.066 221.259 21.8638C221.735 21.6497 222.27 21.5426 222.865 21.5426C223.484 21.5426 224.013 21.6497 224.453 21.8638C224.894 22.066 225.256 22.3337 225.542 22.6668V18.7768C225.542 18.6459 225.584 18.5388 225.667 18.4556C225.75 18.3723 225.857 18.3306 225.988 18.3306H227.826C227.945 18.3306 228.046 18.3723 228.129 18.4556C228.213 18.5388 228.254 18.6459 228.254 18.7768V30.5539C228.254 30.6848 228.213 30.7918 228.129 30.8751C228.046 30.9584 227.945 31 227.826 31H226.113C225.994 31 225.893 30.9584 225.81 30.8751C225.726 30.7918 225.685 30.6848 225.685 30.5539V29.9472C225.387 30.3041 225.013 30.6015 224.56 30.8394C224.108 31.0654 223.543 31.1784 222.865 31.1784ZM223.686 29.0371C224.126 29.0371 224.477 28.936 224.739 28.7338C225.013 28.5316 225.209 28.2758 225.328 27.9665C225.459 27.6572 225.53 27.3241 225.542 26.9672C225.566 26.7412 225.578 26.5152 225.578 26.2891C225.578 26.0631 225.566 25.843 225.542 25.6289C225.53 25.2958 225.459 24.9865 225.328 24.701C225.197 24.4036 224.995 24.1597 224.721 23.9694C224.459 23.7791 224.114 23.6839 223.686 23.6839C223.234 23.6839 222.877 23.785 222.615 23.9872C222.354 24.1776 222.163 24.4334 222.044 24.7545C221.937 25.0757 221.872 25.4267 221.848 25.8074C221.812 26.1761 221.812 26.5449 221.848 26.9137C221.872 27.2944 221.937 27.6453 222.044 27.9665C222.163 28.2877 222.354 28.5494 222.615 28.7516C222.877 28.942 223.234 29.0371 223.686 29.0371Z"
    fill="white" />
</svg>
