<svg width="374" height="140" viewBox="0 0 374 140" fill="none" xmlns="http://www.w3.org/2000/svg">
<path fill-rule="evenodd" clip-rule="evenodd" d="M98.6562 25.2689L92.7114 55.693H52.9262L52.9305 55.6713L35.0468 55.6868C36.2173 55.3366 44.5658 51.472 53.2242 47.464C53.7162 47.2363 54.2092 47.0081 54.7019 46.78L61.302 13.6519C61.5168 12.3726 61.302 11.326 60.6577 10.5119C60.5681 10.3986 60.4732 10.2932 60.3731 10.1957C49.3797 15.7764 38.123 21.4864 29.9633 25.6161L10.0805 127.041C9.88552 128.202 10.0447 129.172 10.558 129.95C24.4281 122.913 37.0717 116.507 41.4623 114.308L47.6107 83.6041H83.6042L103.924 83.4402C102.763 83.8266 94.4792 88.0576 85.8872 92.4458L85.8863 92.4463L85.4537 92.6673L78.698 127.041C78.4988 128.227 78.6229 129.214 79.0703 130C89.5947 124.656 100.963 118.887 110.049 114.283L129.919 13.6519C130.134 12.3726 129.919 11.326 129.275 10.5119C129.122 10.3182 128.953 10.1476 128.77 10C117.775 15.5809 106.621 21.2386 98.6562 25.2689Z" fill="white"/>
<path d="M171.08 80C170.611 80 170.227 79.8507 169.928 79.552C169.629 79.2533 169.48 78.8693 169.48 78.4V36.8C169.48 36.3307 169.629 35.9467 169.928 35.648C170.227 35.3493 170.611 35.2 171.08 35.2H179.336C179.805 35.2 180.189 35.3493 180.488 35.648C180.787 35.9467 180.936 36.3307 180.936 36.8V52.224H196.744V36.8C196.744 36.3307 196.893 35.9467 197.192 35.648C197.491 35.3493 197.875 35.2 198.344 35.2H206.6C207.069 35.2 207.453 35.3493 207.752 35.648C208.051 35.9467 208.2 36.3307 208.2 36.8V78.4C208.2 78.8693 208.051 79.2533 207.752 79.552C207.453 79.8507 207.069 80 206.6 80H198.344C197.875 80 197.491 79.8507 197.192 79.552C196.893 79.2533 196.744 78.8693 196.744 78.4V62.464H180.936V78.4C180.936 78.8693 180.787 79.2533 180.488 79.552C180.189 79.8507 179.805 80 179.336 80H171.08Z" fill="white"/>
<path d="M222.672 92.16C222.288 92.16 221.968 92.032 221.712 91.776C221.456 91.52 221.328 91.2 221.328 90.816C221.328 90.7307 221.328 90.6027 221.328 90.432C221.37 90.304 221.434 90.1547 221.52 89.984L226.512 77.952L214.224 48.896C214.096 48.5973 214.032 48.3413 214.032 48.128C214.117 47.744 214.288 47.424 214.544 47.168C214.8 46.8693 215.12 46.72 215.504 46.72H222.8C223.354 46.72 223.76 46.8693 224.016 47.168C224.314 47.424 224.506 47.7227 224.592 48.064L231.952 66.688L239.44 48.064C239.61 47.7227 239.824 47.424 240.08 47.168C240.378 46.8693 240.805 46.72 241.36 46.72H248.528C248.912 46.72 249.232 46.8693 249.488 47.168C249.786 47.424 249.936 47.7227 249.936 48.064C249.936 48.2773 249.872 48.5547 249.744 48.896L231.632 90.816C231.504 91.1573 231.29 91.456 230.992 91.712C230.693 92.0107 230.266 92.16 229.712 92.16H222.672Z" fill="white"/>
<path d="M256.251 92.16C255.782 92.16 255.398 92.0107 255.099 91.712C254.8 91.4133 254.651 91.0293 254.651 90.56V48.32C254.651 47.8507 254.8 47.4667 255.099 47.168C255.398 46.8693 255.782 46.72 256.251 46.72H263.483C263.91 46.72 264.272 46.8693 264.571 47.168C264.912 47.4667 265.083 47.8507 265.083 48.32V50.688C266.064 49.3653 267.366 48.2773 268.987 47.424C270.608 46.528 272.614 46.08 275.003 46.08C277.136 46.08 279.014 46.4213 280.635 47.104C282.256 47.744 283.643 48.704 284.795 49.984C285.947 51.264 286.843 52.8213 287.483 54.656C288.166 56.4907 288.55 58.6027 288.635 60.992C288.678 61.8453 288.699 62.6347 288.699 63.36C288.699 64.0853 288.678 64.8747 288.635 65.728C288.55 68.032 288.187 70.1013 287.547 71.936C286.907 73.7707 286.011 75.328 284.859 76.608C283.707 77.888 282.299 78.8907 280.635 79.616C279.014 80.2987 277.136 80.64 275.003 80.64C272.912 80.64 271.078 80.2773 269.499 79.552C267.963 78.784 266.683 77.7173 265.659 76.352V90.56C265.659 91.0293 265.51 91.4133 265.211 91.712C264.912 92.0107 264.528 92.16 264.059 92.16H256.251ZM271.547 72.064C272.998 72.064 274.128 71.7653 274.939 71.168C275.75 70.5707 276.326 69.76 276.667 68.736C277.051 67.712 277.286 66.5813 277.371 65.344C277.456 64.0213 277.456 62.6987 277.371 61.376C277.286 60.1387 277.051 59.008 276.667 57.984C276.326 56.96 275.75 56.1493 274.939 55.552C274.128 54.9547 272.998 54.656 271.547 54.656C270.139 54.656 269.008 54.976 268.155 55.616C267.302 56.2133 266.683 57.0027 266.299 57.984C265.915 58.9653 265.702 60.032 265.659 61.184C265.616 61.9947 265.595 62.784 265.595 63.552C265.595 64.32 265.616 65.1307 265.659 65.984C265.702 67.0507 265.936 68.0533 266.363 68.992C266.79 69.888 267.43 70.6347 268.283 71.232C269.136 71.7867 270.224 72.064 271.547 72.064Z" fill="white"/>
<path d="M310.386 80.64C305.351 80.64 301.341 79.2747 298.354 76.544C295.367 73.8133 293.81 69.76 293.682 64.384C293.682 64.0853 293.682 63.7013 293.682 63.232C293.682 62.7627 293.682 62.4 293.682 62.144C293.81 58.7733 294.557 55.8933 295.922 53.504C297.33 51.072 299.25 49.2373 301.682 48C304.157 46.72 307.037 46.08 310.322 46.08C314.077 46.08 317.17 46.8267 319.602 48.32C322.077 49.8133 323.933 51.84 325.17 54.4C326.407 56.96 327.026 59.8827 327.026 63.168V64.704C327.026 65.1733 326.855 65.5573 326.514 65.856C326.215 66.1547 325.853 66.304 325.426 66.304H304.946C304.946 66.3467 304.946 66.4107 304.946 66.496C304.946 66.5813 304.946 66.6667 304.946 66.752C304.989 67.9893 305.202 69.12 305.586 70.144C305.97 71.168 306.567 71.9787 307.378 72.576C308.189 73.1733 309.17 73.472 310.322 73.472C311.175 73.472 311.879 73.344 312.434 73.088C313.031 72.7893 313.522 72.4693 313.906 72.128C314.29 71.744 314.589 71.424 314.802 71.168C315.186 70.7413 315.485 70.4853 315.698 70.4C315.954 70.272 316.338 70.208 316.85 70.208H324.786C325.213 70.208 325.554 70.336 325.81 70.592C326.109 70.8053 326.237 71.1253 326.194 71.552C326.151 72.2773 325.789 73.152 325.106 74.176C324.423 75.2 323.421 76.224 322.098 77.248C320.818 78.2293 319.197 79.04 317.234 79.68C315.271 80.32 312.989 80.64 310.386 80.64ZM304.946 59.968H315.762V59.84C315.762 58.4747 315.549 57.28 315.122 56.256C314.738 55.232 314.119 54.4427 313.266 53.888C312.455 53.3333 311.474 53.056 310.322 53.056C309.17 53.056 308.189 53.3333 307.378 53.888C306.61 54.4427 306.013 55.232 305.586 56.256C305.159 57.28 304.946 58.4747 304.946 59.84V59.968Z" fill="white"/>
<path d="M334.626 80C334.157 80 333.773 79.8507 333.474 79.552C333.175 79.2533 333.026 78.8693 333.026 78.4V48.32C333.026 47.8933 333.175 47.5307 333.474 47.232C333.773 46.8907 334.157 46.72 334.626 46.72H341.986C342.455 46.72 342.839 46.8907 343.138 47.232C343.437 47.5307 343.586 47.8933 343.586 48.32V50.88C344.738 49.5573 346.103 48.5333 347.682 47.808C349.303 47.0827 351.117 46.72 353.122 46.72H355.938C356.365 46.72 356.727 46.8693 357.026 47.168C357.367 47.4667 357.538 47.8507 357.538 48.32V54.912C357.538 55.3387 357.367 55.7227 357.026 56.064C356.727 56.3627 356.365 56.512 355.938 56.512H349.73C347.981 56.512 346.615 57.0027 345.634 57.984C344.695 58.9227 344.226 60.2667 344.226 62.016V78.4C344.226 78.8693 344.055 79.2533 343.714 79.552C343.415 79.8507 343.031 80 342.562 80H334.626Z" fill="white"/>
<path d="M169.992 113.16C169.064 113.16 168.285 113.021 167.656 112.744C167.027 112.456 166.541 112.088 166.2 111.64C165.869 111.181 165.693 110.696 165.672 110.184C165.672 110.099 165.704 110.024 165.768 109.96C165.843 109.885 165.928 109.848 166.024 109.848H166.84C166.968 109.848 167.064 109.88 167.128 109.944C167.192 110.008 167.235 110.083 167.256 110.168C167.309 110.424 167.437 110.68 167.64 110.936C167.853 111.181 168.147 111.389 168.52 111.56C168.904 111.72 169.395 111.8 169.992 111.8C170.909 111.8 171.581 111.64 172.008 111.32C172.445 110.989 172.664 110.552 172.664 110.008C172.664 109.635 172.547 109.336 172.312 109.112C172.088 108.877 171.741 108.669 171.272 108.488C170.803 108.307 170.195 108.109 169.448 107.896C168.669 107.672 168.024 107.427 167.512 107.16C167 106.893 166.616 106.563 166.36 106.168C166.115 105.773 165.992 105.272 165.992 104.664C165.992 104.088 166.147 103.576 166.456 103.128C166.765 102.669 167.208 102.307 167.784 102.04C168.371 101.773 169.08 101.64 169.912 101.64C170.573 101.64 171.149 101.731 171.64 101.912C172.141 102.083 172.557 102.317 172.888 102.616C173.219 102.904 173.469 103.219 173.64 103.56C173.811 103.891 173.901 104.216 173.912 104.536C173.912 104.611 173.885 104.685 173.832 104.76C173.779 104.824 173.693 104.856 173.576 104.856H172.728C172.653 104.856 172.573 104.835 172.488 104.792C172.413 104.749 172.355 104.669 172.312 104.552C172.248 104.115 172.003 103.747 171.576 103.448C171.149 103.149 170.595 103 169.912 103C169.219 103 168.653 103.133 168.216 103.4C167.789 103.667 167.576 104.083 167.576 104.648C167.576 105.011 167.677 105.315 167.88 105.56C168.083 105.795 168.403 106.003 168.84 106.184C169.277 106.365 169.848 106.557 170.552 106.76C171.405 106.995 172.104 107.245 172.648 107.512C173.192 107.768 173.592 108.093 173.848 108.488C174.115 108.872 174.248 109.368 174.248 109.976C174.248 110.648 174.072 111.224 173.72 111.704C173.368 112.173 172.872 112.536 172.232 112.792C171.603 113.037 170.856 113.16 169.992 113.16Z" fill="white"/>
<path d="M179.545 113.16C178.734 113.16 178.057 113.005 177.513 112.696C176.969 112.387 176.553 111.96 176.265 111.416C175.977 110.861 175.817 110.232 175.785 109.528C175.774 109.347 175.769 109.117 175.769 108.84C175.769 108.552 175.774 108.323 175.785 108.152C175.817 107.437 175.977 106.808 176.265 106.264C176.564 105.72 176.985 105.293 177.529 104.984C178.073 104.675 178.745 104.52 179.545 104.52C180.345 104.52 181.017 104.675 181.561 104.984C182.105 105.293 182.521 105.72 182.809 106.264C183.108 106.808 183.273 107.437 183.305 108.152C183.316 108.323 183.321 108.552 183.321 108.84C183.321 109.117 183.316 109.347 183.305 109.528C183.273 110.232 183.113 110.861 182.825 111.416C182.537 111.96 182.121 112.387 181.577 112.696C181.033 113.005 180.356 113.16 179.545 113.16ZM179.545 111.928C180.206 111.928 180.734 111.72 181.129 111.304C181.524 110.877 181.737 110.259 181.769 109.448C181.78 109.288 181.785 109.085 181.785 108.84C181.785 108.595 181.78 108.392 181.769 108.232C181.737 107.421 181.524 106.808 181.129 106.392C180.734 105.965 180.206 105.752 179.545 105.752C178.884 105.752 178.35 105.965 177.945 106.392C177.55 106.808 177.342 107.421 177.321 108.232C177.31 108.392 177.305 108.595 177.305 108.84C177.305 109.085 177.31 109.288 177.321 109.448C177.342 110.259 177.55 110.877 177.945 111.304C178.35 111.72 178.884 111.928 179.545 111.928Z" fill="white"/>
<path d="M188.685 113.16C187.927 113.16 187.271 113.016 186.717 112.728C186.173 112.429 185.751 112.008 185.453 111.464C185.154 110.909 184.994 110.248 184.973 109.48C184.962 109.32 184.957 109.107 184.957 108.84C184.957 108.573 184.962 108.36 184.973 108.2C184.994 107.432 185.154 106.776 185.453 106.232C185.751 105.677 186.173 105.256 186.717 104.968C187.271 104.669 187.927 104.52 188.685 104.52C189.303 104.52 189.831 104.605 190.269 104.776C190.717 104.947 191.085 105.165 191.373 105.432C191.661 105.699 191.874 105.987 192.013 106.296C192.162 106.605 192.242 106.899 192.253 107.176C192.263 107.283 192.231 107.368 192.157 107.432C192.082 107.496 191.991 107.528 191.885 107.528H191.117C191.01 107.528 190.93 107.507 190.877 107.464C190.823 107.411 190.77 107.325 190.717 107.208C190.525 106.685 190.263 106.317 189.933 106.104C189.602 105.891 189.191 105.784 188.701 105.784C188.061 105.784 187.538 105.981 187.133 106.376C186.738 106.771 186.525 107.405 186.493 108.28C186.482 108.664 186.482 109.037 186.493 109.4C186.525 110.285 186.738 110.925 187.133 111.32C187.538 111.704 188.061 111.896 188.701 111.896C189.191 111.896 189.602 111.789 189.933 111.576C190.263 111.363 190.525 110.995 190.717 110.472C190.77 110.355 190.823 110.275 190.877 110.232C190.93 110.179 191.01 110.152 191.117 110.152H191.885C191.991 110.152 192.082 110.184 192.157 110.248C192.231 110.312 192.263 110.397 192.253 110.504C192.242 110.728 192.194 110.957 192.109 111.192C192.023 111.427 191.885 111.667 191.693 111.912C191.511 112.147 191.282 112.36 191.005 112.552C190.727 112.733 190.391 112.883 189.997 113C189.613 113.107 189.175 113.16 188.685 113.16Z" fill="white"/>
<path d="M194.521 113C194.414 113 194.323 112.968 194.249 112.904C194.185 112.829 194.153 112.739 194.153 112.632V105.048C194.153 104.941 194.185 104.856 194.249 104.792C194.323 104.717 194.414 104.68 194.521 104.68H195.289C195.395 104.68 195.481 104.717 195.545 104.792C195.609 104.856 195.641 104.941 195.641 105.048V112.632C195.641 112.739 195.609 112.829 195.545 112.904C195.481 112.968 195.395 113 195.289 113H194.521ZM194.393 103.128C194.286 103.128 194.195 103.096 194.121 103.032C194.057 102.957 194.025 102.867 194.025 102.76V101.896C194.025 101.789 194.057 101.704 194.121 101.64C194.195 101.565 194.286 101.528 194.393 101.528H195.401C195.507 101.528 195.593 101.565 195.657 101.64C195.731 101.704 195.769 101.789 195.769 101.896V102.76C195.769 102.867 195.731 102.957 195.657 103.032C195.593 103.096 195.507 103.128 195.401 103.128H194.393Z" fill="white"/>
<path d="M200.348 113.16C199.814 113.16 199.329 113.053 198.892 112.84C198.454 112.627 198.102 112.339 197.836 111.976C197.569 111.613 197.436 111.203 197.436 110.744C197.436 110.008 197.734 109.421 198.332 108.984C198.929 108.547 199.708 108.259 200.668 108.12L203.052 107.784V107.32C203.052 106.808 202.902 106.408 202.604 106.12C202.316 105.832 201.841 105.688 201.18 105.688C200.7 105.688 200.31 105.784 200.012 105.976C199.724 106.168 199.521 106.413 199.404 106.712C199.34 106.872 199.228 106.952 199.068 106.952H198.348C198.23 106.952 198.14 106.92 198.076 106.856C198.022 106.781 197.996 106.696 197.996 106.6C197.996 106.44 198.054 106.243 198.172 106.008C198.3 105.773 198.492 105.544 198.748 105.32C199.004 105.096 199.329 104.909 199.724 104.76C200.129 104.6 200.62 104.52 201.196 104.52C201.836 104.52 202.374 104.605 202.812 104.776C203.249 104.936 203.59 105.155 203.836 105.432C204.092 105.709 204.273 106.024 204.38 106.376C204.497 106.728 204.556 107.085 204.556 107.448V112.632C204.556 112.739 204.518 112.829 204.444 112.904C204.38 112.968 204.294 113 204.188 113H203.452C203.334 113 203.244 112.968 203.18 112.904C203.116 112.829 203.084 112.739 203.084 112.632V111.944C202.945 112.136 202.758 112.328 202.524 112.52C202.289 112.701 201.996 112.856 201.644 112.984C201.292 113.101 200.86 113.16 200.348 113.16ZM200.684 111.96C201.121 111.96 201.521 111.869 201.884 111.688C202.246 111.496 202.529 111.203 202.732 110.808C202.945 110.413 203.052 109.917 203.052 109.32V108.872L201.196 109.144C200.438 109.251 199.868 109.432 199.484 109.688C199.1 109.933 198.908 110.248 198.908 110.632C198.908 110.931 198.993 111.181 199.164 111.384C199.345 111.576 199.569 111.72 199.836 111.816C200.113 111.912 200.396 111.96 200.684 111.96Z" fill="white"/>
<path d="M207.24 113C207.133 113 207.043 112.968 206.968 112.904C206.904 112.829 206.872 112.739 206.872 112.632V102.008C206.872 101.901 206.904 101.816 206.968 101.752C207.043 101.677 207.133 101.64 207.24 101.64H207.992C208.109 101.64 208.2 101.677 208.264 101.752C208.328 101.816 208.36 101.901 208.36 102.008V112.632C208.36 112.739 208.328 112.829 208.264 112.904C208.2 112.968 208.109 113 207.992 113H207.24Z" fill="white"/>
<path d="M215.244 113C215.127 113 215.036 112.968 214.972 112.904C214.908 112.829 214.876 112.739 214.876 112.632V102.184C214.876 102.067 214.908 101.976 214.972 101.912C215.036 101.837 215.127 101.8 215.244 101.8H219.308C220.098 101.8 220.78 101.928 221.356 102.184C221.943 102.44 222.396 102.824 222.716 103.336C223.036 103.837 223.196 104.467 223.196 105.224C223.196 105.981 223.036 106.611 222.716 107.112C222.396 107.613 221.943 107.992 221.356 108.248C220.78 108.504 220.098 108.632 219.308 108.632H216.476V112.632C216.476 112.739 216.439 112.829 216.364 112.904C216.3 112.968 216.21 113 216.092 113H215.244ZM216.46 107.288H219.228C220.018 107.288 220.61 107.112 221.004 106.76C221.399 106.408 221.596 105.896 221.596 105.224C221.596 104.563 221.404 104.051 221.02 103.688C220.636 103.325 220.039 103.144 219.228 103.144H216.46V107.288Z" fill="white"/>
<path d="M225.318 113C225.211 113 225.121 112.968 225.046 112.904C224.982 112.829 224.95 112.739 224.95 112.632V102.008C224.95 101.901 224.982 101.816 225.046 101.752C225.121 101.677 225.211 101.64 225.318 101.64H226.07C226.187 101.64 226.278 101.677 226.342 101.752C226.406 101.816 226.438 101.901 226.438 102.008V112.632C226.438 112.739 226.406 112.829 226.342 112.904C226.278 112.968 226.187 113 226.07 113H225.318Z" fill="white"/>
<path d="M231.145 113.16C230.611 113.16 230.126 113.053 229.689 112.84C229.251 112.627 228.899 112.339 228.633 111.976C228.366 111.613 228.233 111.203 228.233 110.744C228.233 110.008 228.531 109.421 229.129 108.984C229.726 108.547 230.505 108.259 231.465 108.12L233.849 107.784V107.32C233.849 106.808 233.699 106.408 233.401 106.12C233.113 105.832 232.638 105.688 231.977 105.688C231.497 105.688 231.107 105.784 230.809 105.976C230.521 106.168 230.318 106.413 230.201 106.712C230.137 106.872 230.025 106.952 229.865 106.952H229.145C229.027 106.952 228.937 106.92 228.873 106.856C228.819 106.781 228.793 106.696 228.793 106.6C228.793 106.44 228.851 106.243 228.969 106.008C229.097 105.773 229.289 105.544 229.545 105.32C229.801 105.096 230.126 104.909 230.521 104.76C230.926 104.6 231.417 104.52 231.993 104.52C232.633 104.52 233.171 104.605 233.609 104.776C234.046 104.936 234.387 105.155 234.633 105.432C234.889 105.709 235.07 106.024 235.177 106.376C235.294 106.728 235.353 107.085 235.353 107.448V112.632C235.353 112.739 235.315 112.829 235.241 112.904C235.177 112.968 235.091 113 234.985 113H234.249C234.131 113 234.041 112.968 233.977 112.904C233.913 112.829 233.881 112.739 233.881 112.632V111.944C233.742 112.136 233.555 112.328 233.321 112.52C233.086 112.701 232.793 112.856 232.441 112.984C232.089 113.101 231.657 113.16 231.145 113.16ZM231.481 111.96C231.918 111.96 232.318 111.869 232.681 111.688C233.043 111.496 233.326 111.203 233.529 110.808C233.742 110.413 233.849 109.917 233.849 109.32V108.872L231.993 109.144C231.235 109.251 230.665 109.432 230.281 109.688C229.897 109.933 229.705 110.248 229.705 110.632C229.705 110.931 229.79 111.181 229.961 111.384C230.142 111.576 230.366 111.72 230.633 111.816C230.91 111.912 231.193 111.96 231.481 111.96Z" fill="white"/>
<path d="M240.823 113C240.225 113 239.74 112.888 239.367 112.664C238.993 112.429 238.721 112.104 238.551 111.688C238.38 111.261 238.295 110.76 238.295 110.184V105.96H237.047C236.94 105.96 236.849 105.928 236.775 105.864C236.711 105.789 236.679 105.699 236.679 105.592V105.048C236.679 104.941 236.711 104.856 236.775 104.792C236.849 104.717 236.94 104.68 237.047 104.68H238.295V102.008C238.295 101.901 238.327 101.816 238.391 101.752C238.465 101.677 238.556 101.64 238.663 101.64H239.415C239.521 101.64 239.607 101.677 239.671 101.752C239.745 101.816 239.783 101.901 239.783 102.008V104.68H241.767C241.873 104.68 241.959 104.717 242.023 104.792C242.097 104.856 242.135 104.941 242.135 105.048V105.592C242.135 105.699 242.097 105.789 242.023 105.864C241.959 105.928 241.873 105.96 241.767 105.96H239.783V110.072C239.783 110.573 239.868 110.968 240.039 111.256C240.209 111.544 240.513 111.688 240.951 111.688H241.927C242.033 111.688 242.119 111.725 242.183 111.8C242.257 111.864 242.295 111.949 242.295 112.056V112.632C242.295 112.739 242.257 112.829 242.183 112.904C242.119 112.968 242.033 113 241.927 113H240.823Z" fill="white"/>
<path d="M245.025 113C244.918 113 244.827 112.968 244.753 112.904C244.689 112.829 244.657 112.739 244.657 112.632V105.96H243.297C243.19 105.96 243.099 105.928 243.025 105.864C242.961 105.789 242.929 105.699 242.929 105.592V105.048C242.929 104.941 242.961 104.856 243.025 104.792C243.099 104.717 243.19 104.68 243.297 104.68H244.657V103.88C244.657 103.336 244.747 102.861 244.929 102.456C245.11 102.04 245.398 101.72 245.793 101.496C246.198 101.272 246.737 101.16 247.409 101.16H248.369C248.475 101.16 248.561 101.197 248.625 101.272C248.689 101.336 248.721 101.421 248.721 101.528V102.072C248.721 102.179 248.689 102.269 248.625 102.344C248.561 102.408 248.475 102.44 248.369 102.44H247.441C246.939 102.44 246.598 102.573 246.417 102.84C246.235 103.096 246.145 103.469 246.145 103.96V104.68H248.209C248.315 104.68 248.401 104.717 248.465 104.792C248.529 104.856 248.561 104.941 248.561 105.048V105.592C248.561 105.699 248.529 105.789 248.465 105.864C248.401 105.928 248.315 105.96 248.209 105.96H246.145V112.632C246.145 112.739 246.107 112.829 246.033 112.904C245.969 112.968 245.883 113 245.777 113H245.025Z" fill="white"/>
<path d="M253.233 113.16C252.422 113.16 251.745 113.005 251.201 112.696C250.657 112.387 250.241 111.96 249.953 111.416C249.665 110.861 249.505 110.232 249.473 109.528C249.462 109.347 249.457 109.117 249.457 108.84C249.457 108.552 249.462 108.323 249.473 108.152C249.505 107.437 249.665 106.808 249.953 106.264C250.251 105.72 250.673 105.293 251.217 104.984C251.761 104.675 252.433 104.52 253.233 104.52C254.033 104.52 254.705 104.675 255.249 104.984C255.793 105.293 256.209 105.72 256.497 106.264C256.795 106.808 256.961 107.437 256.993 108.152C257.003 108.323 257.009 108.552 257.009 108.84C257.009 109.117 257.003 109.347 256.993 109.528C256.961 110.232 256.801 110.861 256.513 111.416C256.225 111.96 255.809 112.387 255.265 112.696C254.721 113.005 254.043 113.16 253.233 113.16ZM253.233 111.928C253.894 111.928 254.422 111.72 254.817 111.304C255.211 110.877 255.425 110.259 255.457 109.448C255.467 109.288 255.473 109.085 255.473 108.84C255.473 108.595 255.467 108.392 255.457 108.232C255.425 107.421 255.211 106.808 254.817 106.392C254.422 105.965 253.894 105.752 253.233 105.752C252.571 105.752 252.038 105.965 251.633 106.392C251.238 106.808 251.03 107.421 251.009 108.232C250.998 108.392 250.993 108.595 250.993 108.84C250.993 109.085 250.998 109.288 251.009 109.448C251.03 110.259 251.238 110.877 251.633 111.304C252.038 111.72 252.571 111.928 253.233 111.928Z" fill="white"/>
<path d="M259.38 113C259.273 113 259.183 112.968 259.108 112.904C259.044 112.829 259.012 112.739 259.012 112.632V105.064C259.012 104.957 259.044 104.867 259.108 104.792C259.183 104.717 259.273 104.68 259.38 104.68H260.116C260.223 104.68 260.313 104.717 260.388 104.792C260.463 104.867 260.5 104.957 260.5 105.064V105.768C260.713 105.405 261.007 105.133 261.38 104.952C261.753 104.771 262.201 104.68 262.724 104.68H263.364C263.471 104.68 263.556 104.717 263.62 104.792C263.684 104.856 263.716 104.941 263.716 105.048V105.704C263.716 105.811 263.684 105.896 263.62 105.96C263.556 106.024 263.471 106.056 263.364 106.056H262.404C261.828 106.056 261.375 106.227 261.044 106.568C260.713 106.899 260.548 107.352 260.548 107.928V112.632C260.548 112.739 260.511 112.829 260.436 112.904C260.361 112.968 260.271 113 260.164 113H259.38Z" fill="white"/>
<path d="M265.458 113C265.352 113 265.261 112.968 265.186 112.904C265.122 112.829 265.09 112.739 265.09 112.632V105.048C265.09 104.941 265.122 104.856 265.186 104.792C265.261 104.717 265.352 104.68 265.458 104.68H266.178C266.285 104.68 266.37 104.717 266.434 104.792C266.509 104.856 266.546 104.941 266.546 105.048V105.608C266.792 105.277 267.101 105.016 267.474 104.824C267.848 104.621 268.296 104.52 268.818 104.52C270.024 104.509 270.877 105 271.378 105.992C271.624 105.544 271.981 105.187 272.45 104.92C272.92 104.653 273.453 104.52 274.05 104.52C274.605 104.52 275.106 104.648 275.554 104.904C276.013 105.16 276.37 105.549 276.626 106.072C276.893 106.584 277.026 107.229 277.026 108.008V112.632C277.026 112.739 276.989 112.829 276.914 112.904C276.85 112.968 276.765 113 276.658 113H275.906C275.8 113 275.709 112.968 275.634 112.904C275.57 112.829 275.538 112.739 275.538 112.632V108.152C275.538 107.555 275.453 107.085 275.282 106.744C275.112 106.403 274.882 106.163 274.594 106.024C274.306 105.885 273.992 105.816 273.65 105.816C273.373 105.816 273.09 105.885 272.802 106.024C272.514 106.163 272.274 106.403 272.082 106.744C271.901 107.085 271.81 107.555 271.81 108.152V112.632C271.81 112.739 271.773 112.829 271.698 112.904C271.634 112.968 271.549 113 271.442 113H270.69C270.584 113 270.493 112.968 270.418 112.904C270.354 112.829 270.322 112.739 270.322 112.632V108.152C270.322 107.555 270.232 107.085 270.05 106.744C269.869 106.403 269.634 106.163 269.346 106.024C269.058 105.885 268.754 105.816 268.434 105.816C268.157 105.816 267.874 105.885 267.586 106.024C267.298 106.163 267.058 106.403 266.866 106.744C266.685 107.085 266.594 107.549 266.594 108.136V112.632C266.594 112.739 266.557 112.829 266.482 112.904C266.418 112.968 266.333 113 266.226 113H265.458Z" fill="white"/>
<path d="M284.134 113C284.027 113 283.937 112.968 283.862 112.904C283.798 112.829 283.766 112.739 283.766 112.632V105.96H282.406C282.299 105.96 282.209 105.928 282.134 105.864C282.07 105.789 282.038 105.699 282.038 105.592V105.048C282.038 104.941 282.07 104.856 282.134 104.792C282.209 104.717 282.299 104.68 282.406 104.68H283.766V103.88C283.766 103.336 283.857 102.861 284.038 102.456C284.219 102.04 284.507 101.72 284.902 101.496C285.307 101.272 285.846 101.16 286.518 101.16H287.478C287.585 101.16 287.67 101.197 287.734 101.272C287.798 101.336 287.83 101.421 287.83 101.528V102.072C287.83 102.179 287.798 102.269 287.734 102.344C287.67 102.408 287.585 102.44 287.478 102.44H286.55C286.049 102.44 285.707 102.573 285.526 102.84C285.345 103.096 285.254 103.469 285.254 103.96V104.68H287.318C287.425 104.68 287.51 104.717 287.574 104.792C287.638 104.856 287.67 104.941 287.67 105.048V105.592C287.67 105.699 287.638 105.789 287.574 105.864C287.51 105.928 287.425 105.96 287.318 105.96H285.254V112.632C285.254 112.739 285.217 112.829 285.142 112.904C285.078 112.968 284.993 113 284.886 113H284.134Z" fill="white"/>
<path d="M292.342 113.16C291.531 113.16 290.854 113.005 290.31 112.696C289.766 112.387 289.35 111.96 289.062 111.416C288.774 110.861 288.614 110.232 288.582 109.528C288.571 109.347 288.566 109.117 288.566 108.84C288.566 108.552 288.571 108.323 288.582 108.152C288.614 107.437 288.774 106.808 289.062 106.264C289.361 105.72 289.782 105.293 290.326 104.984C290.87 104.675 291.542 104.52 292.342 104.52C293.142 104.52 293.814 104.675 294.358 104.984C294.902 105.293 295.318 105.72 295.606 106.264C295.905 106.808 296.07 107.437 296.102 108.152C296.113 108.323 296.118 108.552 296.118 108.84C296.118 109.117 296.113 109.347 296.102 109.528C296.07 110.232 295.91 110.861 295.622 111.416C295.334 111.96 294.918 112.387 294.374 112.696C293.83 113.005 293.153 113.16 292.342 113.16ZM292.342 111.928C293.003 111.928 293.531 111.72 293.926 111.304C294.321 110.877 294.534 110.259 294.566 109.448C294.577 109.288 294.582 109.085 294.582 108.84C294.582 108.595 294.577 108.392 294.566 108.232C294.534 107.421 294.321 106.808 293.926 106.392C293.531 105.965 293.003 105.752 292.342 105.752C291.681 105.752 291.147 105.965 290.742 106.392C290.347 106.808 290.139 107.421 290.118 108.232C290.107 108.392 290.102 108.595 290.102 108.84C290.102 109.085 290.107 109.288 290.118 109.448C290.139 110.259 290.347 110.877 290.742 111.304C291.147 111.72 291.681 111.928 292.342 111.928Z" fill="white"/>
<path d="M298.49 113C298.383 113 298.292 112.968 298.218 112.904C298.154 112.829 298.122 112.739 298.122 112.632V105.064C298.122 104.957 298.154 104.867 298.218 104.792C298.292 104.717 298.383 104.68 298.49 104.68H299.226C299.332 104.68 299.423 104.717 299.498 104.792C299.572 104.867 299.61 104.957 299.61 105.064V105.768C299.823 105.405 300.116 105.133 300.49 104.952C300.863 104.771 301.311 104.68 301.834 104.68H302.474C302.58 104.68 302.666 104.717 302.73 104.792C302.794 104.856 302.826 104.941 302.826 105.048V105.704C302.826 105.811 302.794 105.896 302.73 105.96C302.666 106.024 302.58 106.056 302.474 106.056H301.514C300.938 106.056 300.484 106.227 300.154 106.568C299.823 106.899 299.658 107.352 299.658 107.928V112.632C299.658 112.739 299.62 112.829 299.546 112.904C299.471 112.968 299.38 113 299.274 113H298.49Z" fill="white"/>
<path d="M312.019 113.16C311.08 113.16 310.28 112.984 309.619 112.632C308.968 112.28 308.467 111.784 308.115 111.144C307.773 110.504 307.581 109.752 307.539 108.888C307.528 108.419 307.523 107.923 307.523 107.4C307.523 106.867 307.528 106.36 307.539 105.88C307.581 105.016 307.773 104.269 308.115 103.64C308.467 103.011 308.973 102.52 309.635 102.168C310.296 101.816 311.091 101.64 312.019 101.64C312.776 101.64 313.432 101.747 313.987 101.96C314.541 102.173 314.995 102.445 315.347 102.776C315.709 103.096 315.976 103.432 316.147 103.784C316.328 104.136 316.424 104.445 316.435 104.712C316.445 104.808 316.419 104.888 316.355 104.952C316.291 105.005 316.205 105.032 316.099 105.032H315.155C315.048 105.032 314.968 105.011 314.915 104.968C314.872 104.925 314.829 104.851 314.787 104.744C314.691 104.467 314.531 104.195 314.307 103.928C314.093 103.661 313.8 103.443 313.427 103.272C313.064 103.091 312.595 103 312.019 103C311.176 103 310.493 103.229 309.971 103.688C309.459 104.147 309.181 104.904 309.139 105.96C309.107 106.909 309.107 107.859 309.139 108.808C309.181 109.875 309.464 110.643 309.987 111.112C310.509 111.571 311.192 111.8 312.035 111.8C312.6 111.8 313.101 111.699 313.539 111.496C313.987 111.283 314.339 110.957 314.595 110.52C314.851 110.083 314.979 109.528 314.979 108.856V108.184H312.579C312.472 108.184 312.381 108.152 312.307 108.088C312.243 108.013 312.211 107.917 312.211 107.8V107.288C312.211 107.171 312.243 107.08 312.307 107.016C312.381 106.941 312.472 106.904 312.579 106.904H316.195C316.312 106.904 316.403 106.941 316.467 107.016C316.531 107.08 316.563 107.171 316.563 107.288V108.824C316.563 109.699 316.381 110.461 316.019 111.112C315.667 111.763 315.149 112.269 314.467 112.632C313.784 112.984 312.968 113.16 312.019 113.16Z" fill="white"/>
<path d="M320.957 113.16C320.424 113.16 319.938 113.053 319.501 112.84C319.064 112.627 318.712 112.339 318.445 111.976C318.178 111.613 318.045 111.203 318.045 110.744C318.045 110.008 318.344 109.421 318.941 108.984C319.538 108.547 320.317 108.259 321.277 108.12L323.661 107.784V107.32C323.661 106.808 323.512 106.408 323.213 106.12C322.925 105.832 322.45 105.688 321.789 105.688C321.309 105.688 320.92 105.784 320.621 105.976C320.333 106.168 320.13 106.413 320.013 106.712C319.949 106.872 319.837 106.952 319.677 106.952H318.957C318.84 106.952 318.749 106.92 318.685 106.856C318.632 106.781 318.605 106.696 318.605 106.6C318.605 106.44 318.664 106.243 318.781 106.008C318.909 105.773 319.101 105.544 319.357 105.32C319.613 105.096 319.938 104.909 320.333 104.76C320.738 104.6 321.229 104.52 321.805 104.52C322.445 104.52 322.984 104.605 323.421 104.776C323.858 104.936 324.2 105.155 324.445 105.432C324.701 105.709 324.882 106.024 324.989 106.376C325.106 106.728 325.165 107.085 325.165 107.448V112.632C325.165 112.739 325.128 112.829 325.053 112.904C324.989 112.968 324.904 113 324.797 113H324.061C323.944 113 323.853 112.968 323.789 112.904C323.725 112.829 323.693 112.739 323.693 112.632V111.944C323.554 112.136 323.368 112.328 323.133 112.52C322.898 112.701 322.605 112.856 322.253 112.984C321.901 113.101 321.469 113.16 320.957 113.16ZM321.293 111.96C321.73 111.96 322.13 111.869 322.493 111.688C322.856 111.496 323.138 111.203 323.341 110.808C323.554 110.413 323.661 109.917 323.661 109.32V108.872L321.805 109.144C321.048 109.251 320.477 109.432 320.093 109.688C319.709 109.933 319.517 110.248 319.517 110.632C319.517 110.931 319.602 111.181 319.773 111.384C319.954 111.576 320.178 111.72 320.445 111.816C320.722 111.912 321.005 111.96 321.293 111.96Z" fill="white"/>
<path d="M327.833 113C327.727 113 327.636 112.968 327.561 112.904C327.497 112.829 327.465 112.739 327.465 112.632V105.048C327.465 104.941 327.497 104.856 327.561 104.792C327.636 104.717 327.727 104.68 327.833 104.68H328.553C328.66 104.68 328.745 104.717 328.809 104.792C328.884 104.856 328.921 104.941 328.921 105.048V105.608C329.167 105.277 329.476 105.016 329.849 104.824C330.223 104.621 330.671 104.52 331.193 104.52C332.399 104.509 333.252 105 333.753 105.992C333.999 105.544 334.356 105.187 334.825 104.92C335.295 104.653 335.828 104.52 336.425 104.52C336.98 104.52 337.481 104.648 337.929 104.904C338.388 105.16 338.745 105.549 339.001 106.072C339.268 106.584 339.401 107.229 339.401 108.008V112.632C339.401 112.739 339.364 112.829 339.289 112.904C339.225 112.968 339.14 113 339.033 113H338.281C338.175 113 338.084 112.968 338.009 112.904C337.945 112.829 337.913 112.739 337.913 112.632V108.152C337.913 107.555 337.828 107.085 337.657 106.744C337.487 106.403 337.257 106.163 336.969 106.024C336.681 105.885 336.367 105.816 336.025 105.816C335.748 105.816 335.465 105.885 335.177 106.024C334.889 106.163 334.649 106.403 334.457 106.744C334.276 107.085 334.185 107.555 334.185 108.152V112.632C334.185 112.739 334.148 112.829 334.073 112.904C334.009 112.968 333.924 113 333.817 113H333.065C332.959 113 332.868 112.968 332.793 112.904C332.729 112.829 332.697 112.739 332.697 112.632V108.152C332.697 107.555 332.607 107.085 332.425 106.744C332.244 106.403 332.009 106.163 331.721 106.024C331.433 105.885 331.129 105.816 330.809 105.816C330.532 105.816 330.249 105.885 329.961 106.024C329.673 106.163 329.433 106.403 329.241 106.744C329.06 107.085 328.969 107.549 328.969 108.136V112.632C328.969 112.739 328.932 112.829 328.857 112.904C328.793 112.968 328.708 113 328.601 113H327.833Z" fill="white"/>
<path d="M342.052 113C341.945 113 341.855 112.968 341.78 112.904C341.716 112.829 341.684 112.739 341.684 112.632V105.048C341.684 104.941 341.716 104.856 341.78 104.792C341.855 104.717 341.945 104.68 342.052 104.68H342.82C342.927 104.68 343.012 104.717 343.076 104.792C343.14 104.856 343.172 104.941 343.172 105.048V112.632C343.172 112.739 343.14 112.829 343.076 112.904C343.012 112.968 342.927 113 342.82 113H342.052ZM341.924 103.128C341.817 103.128 341.727 103.096 341.652 103.032C341.588 102.957 341.556 102.867 341.556 102.76V101.896C341.556 101.789 341.588 101.704 341.652 101.64C341.727 101.565 341.817 101.528 341.924 101.528H342.932C343.039 101.528 343.124 101.565 343.188 101.64C343.263 101.704 343.3 101.789 343.3 101.896V102.76C343.3 102.867 343.263 102.957 343.188 103.032C343.124 103.096 343.039 103.128 342.932 103.128H341.924Z" fill="white"/>
<path d="M346.083 113C345.977 113 345.886 112.968 345.811 112.904C345.747 112.829 345.715 112.739 345.715 112.632V105.048C345.715 104.941 345.747 104.856 345.811 104.792C345.886 104.717 345.977 104.68 346.083 104.68H346.835C346.942 104.68 347.027 104.717 347.091 104.792C347.166 104.856 347.203 104.941 347.203 105.048V105.752C347.481 105.389 347.827 105.096 348.243 104.872C348.67 104.637 349.214 104.52 349.875 104.52C350.569 104.52 351.155 104.675 351.635 104.984C352.126 105.283 352.494 105.704 352.739 106.248C352.985 106.781 353.107 107.405 353.107 108.12V112.632C353.107 112.739 353.075 112.829 353.011 112.904C352.947 112.968 352.862 113 352.755 113H351.955C351.849 113 351.758 112.968 351.683 112.904C351.619 112.829 351.587 112.739 351.587 112.632V108.2C351.587 107.453 351.406 106.872 351.043 106.456C350.681 106.029 350.147 105.816 349.443 105.816C348.782 105.816 348.249 106.029 347.843 106.456C347.449 106.872 347.251 107.453 347.251 108.2V112.632C347.251 112.739 347.214 112.829 347.139 112.904C347.075 112.968 346.99 113 346.883 113H346.083Z" fill="white"/>
<path d="M358.826 116.52C358.101 116.52 357.504 116.424 357.034 116.232C356.576 116.04 356.213 115.805 355.946 115.528C355.69 115.261 355.504 114.989 355.386 114.712C355.28 114.445 355.221 114.232 355.21 114.072C355.2 113.965 355.232 113.875 355.306 113.8C355.392 113.725 355.482 113.688 355.578 113.688H356.346C356.442 113.688 356.522 113.709 356.586 113.752C356.65 113.795 356.704 113.885 356.746 114.024C356.81 114.184 356.906 114.36 357.034 114.552C357.162 114.755 357.36 114.925 357.626 115.064C357.893 115.213 358.266 115.288 358.746 115.288C359.248 115.288 359.669 115.219 360.01 115.08C360.352 114.952 360.608 114.717 360.778 114.376C360.96 114.045 361.05 113.587 361.05 113V111.912C360.794 112.243 360.458 112.52 360.042 112.744C359.626 112.957 359.104 113.064 358.474 113.064C357.877 113.064 357.365 112.963 356.938 112.76C356.512 112.547 356.16 112.264 355.882 111.912C355.616 111.549 355.413 111.139 355.274 110.68C355.146 110.221 355.072 109.741 355.05 109.24C355.04 108.941 355.04 108.648 355.05 108.36C355.072 107.859 355.146 107.379 355.274 106.92C355.413 106.461 355.616 106.051 355.882 105.688C356.16 105.325 356.512 105.043 356.938 104.84C357.365 104.627 357.877 104.52 358.474 104.52C359.114 104.52 359.642 104.643 360.058 104.888C360.485 105.123 360.832 105.411 361.098 105.752V105.064C361.098 104.957 361.13 104.867 361.194 104.792C361.269 104.717 361.36 104.68 361.466 104.68H362.202C362.309 104.68 362.4 104.717 362.474 104.792C362.549 104.867 362.586 104.957 362.586 105.064V112.824C362.586 113.539 362.464 114.173 362.218 114.728C361.984 115.283 361.589 115.72 361.034 116.04C360.49 116.36 359.754 116.52 358.826 116.52ZM358.794 111.784C359.328 111.784 359.754 111.661 360.074 111.416C360.405 111.171 360.645 110.861 360.794 110.488C360.954 110.115 361.04 109.736 361.05 109.352C361.061 109.203 361.066 109.021 361.066 108.808C361.066 108.584 361.061 108.397 361.05 108.248C361.04 107.864 360.954 107.485 360.794 107.112C360.645 106.739 360.405 106.429 360.074 106.184C359.754 105.939 359.328 105.816 358.794 105.816C358.261 105.816 357.834 105.939 357.514 106.184C357.194 106.419 356.965 106.733 356.826 107.128C356.688 107.512 356.608 107.928 356.586 108.376C356.576 108.653 356.576 108.936 356.586 109.224C356.608 109.672 356.688 110.093 356.826 110.488C356.965 110.872 357.194 111.187 357.514 111.432C357.834 111.667 358.261 111.784 358.794 111.784Z" fill="white"/>
</svg>
