<svg width="312" height="312" viewBox="0 0 312 312" fill="none" xmlns="http://www.w3.org/2000/svg">
<path fill-rule="evenodd" clip-rule="evenodd" d="M230.506 39.6991L215.05 118.802H111.608L111.619 118.745L65.1216 118.786C68.165 117.875 89.8712 107.827 112.383 97.4065C113.662 96.8143 114.944 96.221 116.225 95.6281L133.385 9.49494C133.944 6.16886 133.385 3.44752 131.71 1.33094C131.477 1.03638 131.23 0.762324 130.97 0.508761C102.387 15.0186 73.1197 29.8648 51.9047 40.6018L0.209396 304.306C-0.297638 307.326 0.116131 309.848 1.4507 311.871C37.5131 293.574 70.3865 276.919 81.8021 271.202L97.7879 191.371H191.372L244.203 190.945C241.185 191.949 219.645 202.95 197.305 214.36L197.304 214.36L196.18 214.935L178.615 304.306C178.097 307.391 178.42 309.956 179.583 312C206.946 298.106 236.504 283.106 260.128 271.137L311.791 9.49494C312.349 6.16886 311.791 3.44752 310.115 1.33094C309.717 0.827394 309.279 0.383749 308.801 0C280.216 14.5103 251.215 29.2203 230.506 39.6991Z" fill="white"/>
</svg>
