<svg width="174" height="228" viewBox="0 0 174 228" fill="none" xmlns="http://www.w3.org/2000/svg">
<path fill-rule="evenodd" clip-rule="evenodd" d="M115.656 29.2689L109.711 59.693H69.9262L69.9305 59.6713L52.0468 59.6868C53.2173 59.3366 61.5658 55.472 70.2242 51.464C70.7162 51.2363 71.2092 51.0081 71.7019 50.78L78.302 17.6519C78.5168 16.3726 78.302 15.326 77.6577 14.5119C77.5681 14.3986 77.4732 14.2932 77.3731 14.1957C66.3797 19.7764 55.123 25.4864 46.9633 29.6161L27.0805 131.041C26.8855 132.202 27.0447 133.172 27.558 133.95C41.4281 126.913 54.0717 120.507 58.4623 118.308L64.6107 87.6041H100.604L120.924 87.4402C119.763 87.8266 111.479 92.0576 102.887 96.4458L102.886 96.4463L102.454 96.6673L95.698 131.041C95.4988 132.227 95.6229 133.214 96.0703 134C106.595 128.656 117.963 122.887 127.049 118.283L146.919 17.6519C147.134 16.3726 146.919 15.326 146.275 14.5119C146.122 14.3182 145.953 14.1476 145.77 14C134.775 19.5809 123.621 25.2386 115.656 29.2689Z" fill="white"/>
<path d="M29.8898 184C29.5965 184 29.3565 183.907 29.1698 183.72C28.9832 183.533 28.8898 183.293 28.8898 183V157C28.8898 156.707 28.9832 156.467 29.1698 156.28C29.3565 156.093 29.5965 156 29.8898 156H35.0498C35.3432 156 35.5832 156.093 35.7698 156.28C35.9565 156.467 36.0498 156.707 36.0498 157V166.64H45.9298V157C45.9298 156.707 46.0232 156.467 46.2098 156.28C46.3965 156.093 46.6365 156 46.9298 156H52.0898C52.3832 156 52.6232 156.093 52.8098 156.28C52.9965 156.467 53.0898 156.707 53.0898 157V183C53.0898 183.293 52.9965 183.533 52.8098 183.72C52.6232 183.907 52.3832 184 52.0898 184H46.9298C46.6365 184 46.3965 183.907 46.2098 183.72C46.0232 183.533 45.9298 183.293 45.9298 183V173.04H36.0498V183C36.0498 183.293 35.9565 183.533 35.7698 183.72C35.5832 183.907 35.3432 184 35.0498 184H29.8898Z" fill="white"/>
<path d="M62.1345 191.6C61.8945 191.6 61.6945 191.52 61.5345 191.36C61.3745 191.2 61.2945 191 61.2945 190.76C61.2945 190.707 61.2945 190.627 61.2945 190.52C61.3212 190.44 61.3612 190.347 61.4145 190.24L64.5345 182.72L56.8545 164.56C56.7745 164.373 56.7345 164.213 56.7345 164.08C56.7879 163.84 56.8945 163.64 57.0545 163.48C57.2145 163.293 57.4145 163.2 57.6545 163.2H62.2145C62.5612 163.2 62.8145 163.293 62.9745 163.48C63.1612 163.64 63.2812 163.827 63.3345 164.04L67.9345 175.68L72.6145 164.04C72.7212 163.827 72.8545 163.64 73.0145 163.48C73.2012 163.293 73.4679 163.2 73.8145 163.2H78.2945C78.5345 163.2 78.7345 163.293 78.8945 163.48C79.0812 163.64 79.1745 163.827 79.1745 164.04C79.1745 164.173 79.1345 164.347 79.0545 164.56L67.7345 190.76C67.6545 190.973 67.5212 191.16 67.3345 191.32C67.1479 191.507 66.8812 191.6 66.5345 191.6H62.1345Z" fill="white"/>
<path d="M83.1217 191.6C82.8284 191.6 82.5884 191.507 82.4017 191.32C82.215 191.133 82.1217 190.893 82.1217 190.6V164.2C82.1217 163.907 82.215 163.667 82.4017 163.48C82.5884 163.293 82.8284 163.2 83.1217 163.2H87.6417C87.9084 163.2 88.135 163.293 88.3217 163.48C88.535 163.667 88.6417 163.907 88.6417 164.2V165.68C89.2551 164.853 90.0684 164.173 91.0817 163.64C92.0951 163.08 93.3484 162.8 94.8417 162.8C96.175 162.8 97.3484 163.013 98.3617 163.44C99.3751 163.84 100.242 164.44 100.962 165.24C101.682 166.04 102.242 167.013 102.642 168.16C103.068 169.307 103.308 170.627 103.362 172.12C103.388 172.653 103.402 173.147 103.402 173.6C103.402 174.053 103.388 174.547 103.362 175.08C103.308 176.52 103.082 177.813 102.682 178.96C102.282 180.107 101.722 181.08 101.002 181.88C100.282 182.68 99.4017 183.307 98.3617 183.76C97.3484 184.187 96.175 184.4 94.8417 184.4C93.535 184.4 92.3884 184.173 91.4017 183.72C90.4417 183.24 89.6417 182.573 89.0017 181.72V190.6C89.0017 190.893 88.9084 191.133 88.7217 191.32C88.535 191.507 88.2951 191.6 88.0017 191.6H83.1217ZM92.6817 179.04C93.5884 179.04 94.2951 178.853 94.8017 178.48C95.3084 178.107 95.6684 177.6 95.8817 176.96C96.1217 176.32 96.2684 175.613 96.3217 174.84C96.375 174.013 96.375 173.187 96.3217 172.36C96.2684 171.587 96.1217 170.88 95.8817 170.24C95.6684 169.6 95.3084 169.093 94.8017 168.72C94.2951 168.347 93.5884 168.16 92.6817 168.16C91.8017 168.16 91.095 168.36 90.5617 168.76C90.0284 169.133 89.6417 169.627 89.4017 170.24C89.1617 170.853 89.0284 171.52 89.0017 172.24C88.9751 172.747 88.9617 173.24 88.9617 173.72C88.9617 174.2 88.9751 174.707 89.0017 175.24C89.0284 175.907 89.175 176.533 89.4417 177.12C89.7084 177.68 90.1084 178.147 90.6417 178.52C91.175 178.867 91.855 179.04 92.6817 179.04Z" fill="white"/>
<path d="M116.956 184.4C113.809 184.4 111.303 183.547 109.436 181.84C107.569 180.133 106.596 177.6 106.516 174.24C106.516 174.053 106.516 173.813 106.516 173.52C106.516 173.227 106.516 173 106.516 172.84C106.596 170.733 107.063 168.933 107.916 167.44C108.796 165.92 109.996 164.773 111.516 164C113.063 163.2 114.863 162.8 116.916 162.8C119.263 162.8 121.196 163.267 122.716 164.2C124.263 165.133 125.423 166.4 126.196 168C126.969 169.6 127.356 171.427 127.356 173.48V174.44C127.356 174.733 127.249 174.973 127.036 175.16C126.849 175.347 126.623 175.44 126.356 175.44H113.556C113.556 175.467 113.556 175.507 113.556 175.56C113.556 175.613 113.556 175.667 113.556 175.72C113.583 176.493 113.716 177.2 113.956 177.84C114.196 178.48 114.569 178.987 115.076 179.36C115.583 179.733 116.196 179.92 116.916 179.92C117.449 179.92 117.889 179.84 118.236 179.68C118.609 179.493 118.916 179.293 119.156 179.08C119.396 178.84 119.583 178.64 119.716 178.48C119.956 178.213 120.143 178.053 120.276 178C120.436 177.92 120.676 177.88 120.996 177.88H125.956C126.223 177.88 126.436 177.96 126.596 178.12C126.783 178.253 126.863 178.453 126.836 178.72C126.809 179.173 126.583 179.72 126.156 180.36C125.729 181 125.103 181.64 124.276 182.28C123.476 182.893 122.463 183.4 121.236 183.8C120.009 184.2 118.583 184.4 116.956 184.4ZM113.556 171.48H120.316V171.4C120.316 170.547 120.183 169.8 119.916 169.16C119.676 168.52 119.289 168.027 118.756 167.68C118.249 167.333 117.636 167.16 116.916 167.16C116.196 167.16 115.583 167.333 115.076 167.68C114.596 168.027 114.223 168.52 113.956 169.16C113.689 169.8 113.556 170.547 113.556 171.4V171.48Z" fill="white"/>
<path d="M132.106 184C131.813 184 131.573 183.907 131.386 183.72C131.199 183.533 131.106 183.293 131.106 183V164.2C131.106 163.933 131.199 163.707 131.386 163.52C131.573 163.307 131.813 163.2 132.106 163.2H136.706C136.999 163.2 137.239 163.307 137.426 163.52C137.613 163.707 137.706 163.933 137.706 164.2V165.8C138.426 164.973 139.279 164.333 140.266 163.88C141.279 163.427 142.413 163.2 143.666 163.2H145.426C145.693 163.2 145.919 163.293 146.106 163.48C146.319 163.667 146.426 163.907 146.426 164.2V168.32C146.426 168.587 146.319 168.827 146.106 169.04C145.919 169.227 145.693 169.32 145.426 169.32H141.546C140.453 169.32 139.599 169.627 138.986 170.24C138.399 170.827 138.106 171.667 138.106 172.76V183C138.106 183.293 137.999 183.533 137.786 183.72C137.599 183.907 137.359 184 137.066 184H132.106Z" fill="white"/>
<path d="M16.201 211.12C15.505 211.12 14.921 211.016 14.449 210.808C13.977 210.592 13.613 210.316 13.357 209.98C13.109 209.636 12.977 209.272 12.961 208.888C12.961 208.824 12.985 208.768 13.033 208.72C13.089 208.664 13.153 208.636 13.225 208.636H13.837C13.933 208.636 14.005 208.66 14.053 208.708C14.101 208.756 14.133 208.812 14.149 208.876C14.189 209.068 14.285 209.26 14.437 209.452C14.597 209.636 14.817 209.792 15.097 209.92C15.385 210.04 15.753 210.1 16.201 210.1C16.889 210.1 17.393 209.98 17.713 209.74C18.041 209.492 18.205 209.164 18.205 208.756C18.205 208.476 18.117 208.252 17.941 208.084C17.773 207.908 17.513 207.752 17.161 207.616C16.809 207.48 16.353 207.332 15.793 207.172C15.209 207.004 14.725 206.82 14.341 206.62C13.957 206.42 13.669 206.172 13.477 205.876C13.293 205.58 13.201 205.204 13.201 204.748C13.201 204.316 13.317 203.932 13.549 203.596C13.781 203.252 14.113 202.98 14.545 202.78C14.985 202.58 15.517 202.48 16.141 202.48C16.637 202.48 17.069 202.548 17.437 202.684C17.813 202.812 18.125 202.988 18.373 203.212C18.621 203.428 18.809 203.664 18.937 203.92C19.065 204.168 19.133 204.412 19.141 204.652C19.141 204.708 19.121 204.764 19.081 204.82C19.041 204.868 18.977 204.892 18.889 204.892H18.253C18.197 204.892 18.137 204.876 18.073 204.844C18.017 204.812 17.973 204.752 17.941 204.664C17.893 204.336 17.709 204.06 17.389 203.836C17.069 203.612 16.653 203.5 16.141 203.5C15.621 203.5 15.197 203.6 14.869 203.8C14.549 204 14.389 204.312 14.389 204.736C14.389 205.008 14.465 205.236 14.617 205.42C14.769 205.596 15.009 205.752 15.337 205.888C15.665 206.024 16.093 206.168 16.621 206.32C17.261 206.496 17.785 206.684 18.193 206.884C18.601 207.076 18.901 207.32 19.093 207.616C19.293 207.904 19.393 208.276 19.393 208.732C19.393 209.236 19.261 209.668 18.997 210.028C18.733 210.38 18.361 210.652 17.881 210.844C17.409 211.028 16.849 211.12 16.201 211.12Z" fill="white"/>
<path d="M23.3659 211.12C22.7579 211.12 22.2499 211.004 21.8419 210.772C21.4339 210.54 21.1219 210.22 20.9059 209.812C20.6899 209.396 20.5699 208.924 20.5459 208.396C20.5379 208.26 20.5339 208.088 20.5339 207.88C20.5339 207.664 20.5379 207.492 20.5459 207.364C20.5699 206.828 20.6899 206.356 20.9059 205.948C21.1299 205.54 21.4459 205.22 21.8539 204.988C22.2619 204.756 22.7659 204.64 23.3659 204.64C23.9659 204.64 24.4699 204.756 24.8779 204.988C25.2859 205.22 25.5979 205.54 25.8139 205.948C26.0379 206.356 26.1619 206.828 26.1859 207.364C26.1939 207.492 26.1979 207.664 26.1979 207.88C26.1979 208.088 26.1939 208.26 26.1859 208.396C26.1619 208.924 26.0419 209.396 25.8259 209.812C25.6099 210.22 25.2979 210.54 24.8899 210.772C24.4819 211.004 23.9739 211.12 23.3659 211.12ZM23.3659 210.196C23.8619 210.196 24.2579 210.04 24.5539 209.728C24.8499 209.408 25.0099 208.944 25.0339 208.336C25.0419 208.216 25.0459 208.064 25.0459 207.88C25.0459 207.696 25.0419 207.544 25.0339 207.424C25.0099 206.816 24.8499 206.356 24.5539 206.044C24.2579 205.724 23.8619 205.564 23.3659 205.564C22.8699 205.564 22.4699 205.724 22.1659 206.044C21.8699 206.356 21.7139 206.816 21.6979 207.424C21.6899 207.544 21.6859 207.696 21.6859 207.88C21.6859 208.064 21.6899 208.216 21.6979 208.336C21.7139 208.944 21.8699 209.408 22.1659 209.728C22.4699 210.04 22.8699 210.196 23.3659 210.196Z" fill="white"/>
<path d="M30.2205 211.12C29.6525 211.12 29.1605 211.012 28.7445 210.796C28.3365 210.572 28.0205 210.256 27.7965 209.848C27.5725 209.432 27.4525 208.936 27.4365 208.36C27.4285 208.24 27.4245 208.08 27.4245 207.88C27.4245 207.68 27.4285 207.52 27.4365 207.4C27.4525 206.824 27.5725 206.332 27.7965 205.924C28.0205 205.508 28.3365 205.192 28.7445 204.976C29.1605 204.752 29.6525 204.64 30.2205 204.64C30.6845 204.64 31.0805 204.704 31.4085 204.832C31.7445 204.96 32.0205 205.124 32.2365 205.324C32.4525 205.524 32.6125 205.74 32.7165 205.972C32.8285 206.204 32.8885 206.424 32.8965 206.632C32.9045 206.712 32.8805 206.776 32.8245 206.824C32.7685 206.872 32.7005 206.896 32.6205 206.896H32.0445C31.9645 206.896 31.9045 206.88 31.8645 206.848C31.8245 206.808 31.7845 206.744 31.7445 206.656C31.6005 206.264 31.4045 205.988 31.1565 205.828C30.9085 205.668 30.6005 205.588 30.2325 205.588C29.7525 205.588 29.3605 205.736 29.0565 206.032C28.7605 206.328 28.6005 206.804 28.5765 207.46C28.5685 207.748 28.5685 208.028 28.5765 208.3C28.6005 208.964 28.7605 209.444 29.0565 209.74C29.3605 210.028 29.7525 210.172 30.2325 210.172C30.6005 210.172 30.9085 210.092 31.1565 209.932C31.4045 209.772 31.6005 209.496 31.7445 209.104C31.7845 209.016 31.8245 208.956 31.8645 208.924C31.9045 208.884 31.9645 208.864 32.0445 208.864H32.6205C32.7005 208.864 32.7685 208.888 32.8245 208.936C32.8805 208.984 32.9045 209.048 32.8965 209.128C32.8885 209.296 32.8525 209.468 32.7885 209.644C32.7245 209.82 32.6205 210 32.4765 210.184C32.3405 210.36 32.1685 210.52 31.9605 210.664C31.7525 210.8 31.5005 210.912 31.2045 211C30.9165 211.08 30.5885 211.12 30.2205 211.12Z" fill="white"/>
<path d="M34.5976 211C34.5176 211 34.4496 210.976 34.3936 210.928C34.3456 210.872 34.3216 210.804 34.3216 210.724V205.036C34.3216 204.956 34.3456 204.892 34.3936 204.844C34.4496 204.788 34.5176 204.76 34.5976 204.76H35.1736C35.2536 204.76 35.3176 204.788 35.3656 204.844C35.4136 204.892 35.4376 204.956 35.4376 205.036V210.724C35.4376 210.804 35.4136 210.872 35.3656 210.928C35.3176 210.976 35.2536 211 35.1736 211H34.5976ZM34.5016 203.596C34.4216 203.596 34.3536 203.572 34.2976 203.524C34.2496 203.468 34.2256 203.4 34.2256 203.32V202.672C34.2256 202.592 34.2496 202.528 34.2976 202.48C34.3536 202.424 34.4216 202.396 34.5016 202.396H35.2576C35.3376 202.396 35.4016 202.424 35.4496 202.48C35.5056 202.528 35.5336 202.592 35.5336 202.672V203.32C35.5336 203.4 35.5056 203.468 35.4496 203.524C35.4016 203.572 35.3376 203.596 35.2576 203.596H34.5016Z" fill="white"/>
<path d="M38.9678 211.12C38.5678 211.12 38.2038 211.04 37.8758 210.88C37.5478 210.72 37.2838 210.504 37.0838 210.232C36.8838 209.96 36.7838 209.652 36.7838 209.308C36.7838 208.756 37.0078 208.316 37.4558 207.988C37.9038 207.66 38.4878 207.444 39.2078 207.34L40.9958 207.088V206.74C40.9958 206.356 40.8838 206.056 40.6598 205.84C40.4438 205.624 40.0878 205.516 39.5918 205.516C39.2318 205.516 38.9398 205.588 38.7158 205.732C38.4998 205.876 38.3478 206.06 38.2598 206.284C38.2118 206.404 38.1278 206.464 38.0078 206.464H37.4678C37.3798 206.464 37.3118 206.44 37.2638 206.392C37.2238 206.336 37.2038 206.272 37.2038 206.2C37.2038 206.08 37.2478 205.932 37.3358 205.756C37.4318 205.58 37.5758 205.408 37.7678 205.24C37.9598 205.072 38.2038 204.932 38.4998 204.82C38.8038 204.7 39.1718 204.64 39.6038 204.64C40.0838 204.64 40.4878 204.704 40.8158 204.832C41.1438 204.952 41.3998 205.116 41.5838 205.324C41.7758 205.532 41.9118 205.768 41.9918 206.032C42.0798 206.296 42.1238 206.564 42.1238 206.836V210.724C42.1238 210.804 42.0958 210.872 42.0398 210.928C41.9918 210.976 41.9278 211 41.8478 211H41.2958C41.2078 211 41.1398 210.976 41.0918 210.928C41.0438 210.872 41.0198 210.804 41.0198 210.724V210.208C40.9158 210.352 40.7758 210.496 40.5998 210.64C40.4238 210.776 40.2038 210.892 39.9398 210.988C39.6758 211.076 39.3518 211.12 38.9678 211.12ZM39.2198 210.22C39.5478 210.22 39.8478 210.152 40.1198 210.016C40.3918 209.872 40.6038 209.652 40.7558 209.356C40.9158 209.06 40.9958 208.688 40.9958 208.24V207.904L39.6038 208.108C39.0358 208.188 38.6078 208.324 38.3198 208.516C38.0318 208.7 37.8878 208.936 37.8878 209.224C37.8878 209.448 37.9518 209.636 38.0798 209.788C38.2158 209.932 38.3838 210.04 38.5838 210.112C38.7918 210.184 39.0038 210.22 39.2198 210.22Z" fill="white"/>
<path d="M44.1369 211C44.0569 211 43.9889 210.976 43.9329 210.928C43.8849 210.872 43.8609 210.804 43.8609 210.724V202.756C43.8609 202.676 43.8849 202.612 43.9329 202.564C43.9889 202.508 44.0569 202.48 44.1369 202.48H44.7009C44.7889 202.48 44.8569 202.508 44.9049 202.564C44.9529 202.612 44.9769 202.676 44.9769 202.756V210.724C44.9769 210.804 44.9529 210.872 44.9049 210.928C44.8569 210.976 44.7889 211 44.7009 211H44.1369Z" fill="white"/>
<path d="M50.1403 211C50.0523 211 49.9843 210.976 49.9363 210.928C49.8883 210.872 49.8643 210.804 49.8643 210.724V202.888C49.8643 202.8 49.8883 202.732 49.9363 202.684C49.9843 202.628 50.0523 202.6 50.1403 202.6H53.1883C53.7803 202.6 54.2923 202.696 54.7243 202.888C55.1643 203.08 55.5043 203.368 55.7443 203.752C55.9843 204.128 56.1043 204.6 56.1043 205.168C56.1043 205.736 55.9843 206.208 55.7443 206.584C55.5043 206.96 55.1643 207.244 54.7243 207.436C54.2923 207.628 53.7803 207.724 53.1883 207.724H51.0643V210.724C51.0643 210.804 51.0363 210.872 50.9803 210.928C50.9323 210.976 50.8643 211 50.7763 211H50.1403ZM51.0523 206.716H53.1283C53.7203 206.716 54.1643 206.584 54.4603 206.32C54.7563 206.056 54.9043 205.672 54.9043 205.168C54.9043 204.672 54.7603 204.288 54.4723 204.016C54.1843 203.744 53.7363 203.608 53.1283 203.608H51.0523V206.716Z" fill="white"/>
<path d="M57.6955 211C57.6155 211 57.5475 210.976 57.4915 210.928C57.4435 210.872 57.4195 210.804 57.4195 210.724V202.756C57.4195 202.676 57.4435 202.612 57.4915 202.564C57.5475 202.508 57.6155 202.48 57.6955 202.48H58.2595C58.3475 202.48 58.4155 202.508 58.4635 202.564C58.5115 202.612 58.5355 202.676 58.5355 202.756V210.724C58.5355 210.804 58.5115 210.872 58.4635 210.928C58.4155 210.976 58.3475 211 58.2595 211H57.6955Z" fill="white"/>
<path d="M62.0655 211.12C61.6655 211.12 61.3015 211.04 60.9735 210.88C60.6455 210.72 60.3815 210.504 60.1815 210.232C59.9815 209.96 59.8815 209.652 59.8815 209.308C59.8815 208.756 60.1055 208.316 60.5535 207.988C61.0015 207.66 61.5855 207.444 62.3055 207.34L64.0935 207.088V206.74C64.0935 206.356 63.9815 206.056 63.7575 205.84C63.5415 205.624 63.1855 205.516 62.6895 205.516C62.3295 205.516 62.0375 205.588 61.8135 205.732C61.5975 205.876 61.4455 206.06 61.3575 206.284C61.3095 206.404 61.2255 206.464 61.1055 206.464H60.5655C60.4775 206.464 60.4095 206.44 60.3615 206.392C60.3215 206.336 60.3015 206.272 60.3015 206.2C60.3015 206.08 60.3455 205.932 60.4335 205.756C60.5295 205.58 60.6735 205.408 60.8655 205.24C61.0575 205.072 61.3015 204.932 61.5975 204.82C61.9015 204.7 62.2695 204.64 62.7015 204.64C63.1815 204.64 63.5855 204.704 63.9135 204.832C64.2415 204.952 64.4975 205.116 64.6815 205.324C64.8735 205.532 65.0095 205.768 65.0895 206.032C65.1775 206.296 65.2215 206.564 65.2215 206.836V210.724C65.2215 210.804 65.1935 210.872 65.1375 210.928C65.0895 210.976 65.0255 211 64.9455 211H64.3935C64.3055 211 64.2375 210.976 64.1895 210.928C64.1415 210.872 64.1175 210.804 64.1175 210.724V210.208C64.0135 210.352 63.8735 210.496 63.6975 210.64C63.5215 210.776 63.3015 210.892 63.0375 210.988C62.7735 211.076 62.4495 211.12 62.0655 211.12ZM62.3175 210.22C62.6455 210.22 62.9455 210.152 63.2175 210.016C63.4895 209.872 63.7015 209.652 63.8535 209.356C64.0135 209.06 64.0935 208.688 64.0935 208.24V207.904L62.7015 208.108C62.1335 208.188 61.7055 208.324 61.4175 208.516C61.1295 208.7 60.9855 208.936 60.9855 209.224C60.9855 209.448 61.0495 209.636 61.1775 209.788C61.3135 209.932 61.4815 210.04 61.6815 210.112C61.8895 210.184 62.1015 210.22 62.3175 210.22Z" fill="white"/>
<path d="M69.324 211C68.876 211 68.512 210.916 68.232 210.748C67.952 210.572 67.748 210.328 67.62 210.016C67.492 209.696 67.428 209.32 67.428 208.888V205.72H66.492C66.412 205.72 66.344 205.696 66.288 205.648C66.24 205.592 66.216 205.524 66.216 205.444V205.036C66.216 204.956 66.24 204.892 66.288 204.844C66.344 204.788 66.412 204.76 66.492 204.76H67.428V202.756C67.428 202.676 67.452 202.612 67.5 202.564C67.556 202.508 67.624 202.48 67.704 202.48H68.268C68.348 202.48 68.412 202.508 68.46 202.564C68.516 202.612 68.544 202.676 68.544 202.756V204.76H70.032C70.112 204.76 70.176 204.788 70.224 204.844C70.28 204.892 70.308 204.956 70.308 205.036V205.444C70.308 205.524 70.28 205.592 70.224 205.648C70.176 205.696 70.112 205.72 70.032 205.72H68.544V208.804C68.544 209.18 68.608 209.476 68.736 209.692C68.864 209.908 69.092 210.016 69.42 210.016H70.152C70.232 210.016 70.296 210.044 70.344 210.1C70.4 210.148 70.428 210.212 70.428 210.292V210.724C70.428 210.804 70.4 210.872 70.344 210.928C70.296 210.976 70.232 211 70.152 211H69.324Z" fill="white"/>
<path d="M72.4755 211C72.3955 211 72.3275 210.976 72.2715 210.928C72.2235 210.872 72.1995 210.804 72.1995 210.724V205.72H71.1795C71.0995 205.72 71.0315 205.696 70.9755 205.648C70.9275 205.592 70.9035 205.524 70.9035 205.444V205.036C70.9035 204.956 70.9275 204.892 70.9755 204.844C71.0315 204.788 71.0995 204.76 71.1795 204.76H72.1995V204.16C72.1995 203.752 72.2675 203.396 72.4035 203.092C72.5395 202.78 72.7555 202.54 73.0515 202.372C73.3555 202.204 73.7595 202.12 74.2635 202.12H74.9835C75.0635 202.12 75.1275 202.148 75.1755 202.204C75.2235 202.252 75.2475 202.316 75.2475 202.396V202.804C75.2475 202.884 75.2235 202.952 75.1755 203.008C75.1275 203.056 75.0635 203.08 74.9835 203.08H74.2875C73.9115 203.08 73.6555 203.18 73.5195 203.38C73.3835 203.572 73.3155 203.852 73.3155 204.22V204.76H74.8635C74.9435 204.76 75.0075 204.788 75.0555 204.844C75.1035 204.892 75.1275 204.956 75.1275 205.036V205.444C75.1275 205.524 75.1035 205.592 75.0555 205.648C75.0075 205.696 74.9435 205.72 74.8635 205.72H73.3155V210.724C73.3155 210.804 73.2875 210.872 73.2315 210.928C73.1835 210.976 73.1195 211 73.0395 211H72.4755Z" fill="white"/>
<path d="M78.6315 211.12C78.0235 211.12 77.5155 211.004 77.1075 210.772C76.6995 210.54 76.3875 210.22 76.1715 209.812C75.9555 209.396 75.8355 208.924 75.8115 208.396C75.8035 208.26 75.7995 208.088 75.7995 207.88C75.7995 207.664 75.8035 207.492 75.8115 207.364C75.8355 206.828 75.9555 206.356 76.1715 205.948C76.3955 205.54 76.7115 205.22 77.1195 204.988C77.5275 204.756 78.0315 204.64 78.6315 204.64C79.2315 204.64 79.7355 204.756 80.1435 204.988C80.5515 205.22 80.8635 205.54 81.0795 205.948C81.3035 206.356 81.4275 206.828 81.4515 207.364C81.4595 207.492 81.4635 207.664 81.4635 207.88C81.4635 208.088 81.4595 208.26 81.4515 208.396C81.4275 208.924 81.3075 209.396 81.0915 209.812C80.8755 210.22 80.5635 210.54 80.1555 210.772C79.7475 211.004 79.2395 211.12 78.6315 211.12ZM78.6315 210.196C79.1275 210.196 79.5235 210.04 79.8195 209.728C80.1155 209.408 80.2755 208.944 80.2995 208.336C80.3075 208.216 80.3115 208.064 80.3115 207.88C80.3115 207.696 80.3075 207.544 80.2995 207.424C80.2755 206.816 80.1155 206.356 79.8195 206.044C79.5235 205.724 79.1275 205.564 78.6315 205.564C78.1355 205.564 77.7355 205.724 77.4315 206.044C77.1355 206.356 76.9795 206.816 76.9635 207.424C76.9555 207.544 76.9515 207.696 76.9515 207.88C76.9515 208.064 76.9555 208.216 76.9635 208.336C76.9795 208.944 77.1355 209.408 77.4315 209.728C77.7355 210.04 78.1355 210.196 78.6315 210.196Z" fill="white"/>
<path d="M83.2421 211C83.1621 211 83.0941 210.976 83.0381 210.928C82.9901 210.872 82.9661 210.804 82.9661 210.724V205.048C82.9661 204.968 82.9901 204.9 83.0381 204.844C83.0941 204.788 83.1621 204.76 83.2421 204.76H83.7941C83.8741 204.76 83.9421 204.788 83.9981 204.844C84.0541 204.9 84.0821 204.968 84.0821 205.048V205.576C84.2421 205.304 84.4621 205.1 84.7421 204.964C85.0221 204.828 85.3581 204.76 85.7501 204.76H86.2301C86.3101 204.76 86.3741 204.788 86.4221 204.844C86.4701 204.892 86.4941 204.956 86.4941 205.036V205.528C86.4941 205.608 86.4701 205.672 86.4221 205.72C86.3741 205.768 86.3101 205.792 86.2301 205.792H85.5101C85.0781 205.792 84.7381 205.92 84.4901 206.176C84.2421 206.424 84.1181 206.764 84.1181 207.196V210.724C84.1181 210.804 84.0901 210.872 84.0341 210.928C83.9781 210.976 83.9101 211 83.8301 211H83.2421Z" fill="white"/>
<path d="M87.8007 211C87.7207 211 87.6527 210.976 87.5967 210.928C87.5487 210.872 87.5247 210.804 87.5247 210.724V205.036C87.5247 204.956 87.5487 204.892 87.5967 204.844C87.6527 204.788 87.7207 204.76 87.8007 204.76H88.3407C88.4207 204.76 88.4847 204.788 88.5327 204.844C88.5887 204.892 88.6167 204.956 88.6167 205.036V205.456C88.8007 205.208 89.0327 205.012 89.3127 204.868C89.5927 204.716 89.9287 204.64 90.3207 204.64C91.2247 204.632 91.8647 205 92.2407 205.744C92.4247 205.408 92.6927 205.14 93.0447 204.94C93.3967 204.74 93.7967 204.64 94.2447 204.64C94.6607 204.64 95.0367 204.736 95.3727 204.928C95.7167 205.12 95.9847 205.412 96.1767 205.804C96.3767 206.188 96.4767 206.672 96.4767 207.256V210.724C96.4767 210.804 96.4487 210.872 96.3927 210.928C96.3447 210.976 96.2807 211 96.2007 211H95.6367C95.5567 211 95.4887 210.976 95.4327 210.928C95.3847 210.872 95.3607 210.804 95.3607 210.724V207.364C95.3607 206.916 95.2967 206.564 95.1687 206.308C95.0407 206.052 94.8687 205.872 94.6527 205.768C94.4367 205.664 94.2007 205.612 93.9447 205.612C93.7367 205.612 93.5247 205.664 93.3087 205.768C93.0927 205.872 92.9127 206.052 92.7687 206.308C92.6327 206.564 92.5647 206.916 92.5647 207.364V210.724C92.5647 210.804 92.5367 210.872 92.4807 210.928C92.4327 210.976 92.3687 211 92.2887 211H91.7247C91.6447 211 91.5767 210.976 91.5207 210.928C91.4727 210.872 91.4487 210.804 91.4487 210.724V207.364C91.4487 206.916 91.3807 206.564 91.2447 206.308C91.1087 206.052 90.9327 205.872 90.7167 205.768C90.5007 205.664 90.2727 205.612 90.0327 205.612C89.8247 205.612 89.6127 205.664 89.3967 205.768C89.1807 205.872 89.0007 206.052 88.8567 206.308C88.7207 206.564 88.6527 206.912 88.6527 207.352V210.724C88.6527 210.804 88.6247 210.872 88.5687 210.928C88.5207 210.976 88.4567 211 88.3767 211H87.8007Z" fill="white"/>
<path d="M101.808 211C101.728 211 101.66 210.976 101.604 210.928C101.556 210.872 101.532 210.804 101.532 210.724V205.72H100.512C100.432 205.72 100.364 205.696 100.308 205.648C100.26 205.592 100.236 205.524 100.236 205.444V205.036C100.236 204.956 100.26 204.892 100.308 204.844C100.364 204.788 100.432 204.76 100.512 204.76H101.532V204.16C101.532 203.752 101.6 203.396 101.736 203.092C101.872 202.78 102.088 202.54 102.384 202.372C102.688 202.204 103.092 202.12 103.596 202.12H104.316C104.396 202.12 104.46 202.148 104.508 202.204C104.556 202.252 104.58 202.316 104.58 202.396V202.804C104.58 202.884 104.556 202.952 104.508 203.008C104.46 203.056 104.396 203.08 104.316 203.08H103.62C103.244 203.08 102.988 203.18 102.852 203.38C102.716 203.572 102.648 203.852 102.648 204.22V204.76H104.196C104.276 204.76 104.34 204.788 104.388 204.844C104.436 204.892 104.46 204.956 104.46 205.036V205.444C104.46 205.524 104.436 205.592 104.388 205.648C104.34 205.696 104.276 205.72 104.196 205.72H102.648V210.724C102.648 210.804 102.62 210.872 102.564 210.928C102.516 210.976 102.452 211 102.372 211H101.808Z" fill="white"/>
<path d="M107.964 211.12C107.356 211.12 106.848 211.004 106.44 210.772C106.032 210.54 105.72 210.22 105.504 209.812C105.288 209.396 105.168 208.924 105.144 208.396C105.136 208.26 105.132 208.088 105.132 207.88C105.132 207.664 105.136 207.492 105.144 207.364C105.168 206.828 105.288 206.356 105.504 205.948C105.728 205.54 106.044 205.22 106.452 204.988C106.86 204.756 107.364 204.64 107.964 204.64C108.564 204.64 109.068 204.756 109.476 204.988C109.884 205.22 110.196 205.54 110.412 205.948C110.636 206.356 110.76 206.828 110.784 207.364C110.792 207.492 110.796 207.664 110.796 207.88C110.796 208.088 110.792 208.26 110.784 208.396C110.76 208.924 110.64 209.396 110.424 209.812C110.208 210.22 109.896 210.54 109.488 210.772C109.08 211.004 108.572 211.12 107.964 211.12ZM107.964 210.196C108.46 210.196 108.856 210.04 109.152 209.728C109.448 209.408 109.608 208.944 109.632 208.336C109.64 208.216 109.644 208.064 109.644 207.88C109.644 207.696 109.64 207.544 109.632 207.424C109.608 206.816 109.448 206.356 109.152 206.044C108.856 205.724 108.46 205.564 107.964 205.564C107.468 205.564 107.068 205.724 106.764 206.044C106.468 206.356 106.312 206.816 106.296 207.424C106.288 207.544 106.284 207.696 106.284 207.88C106.284 208.064 106.288 208.216 106.296 208.336C106.312 208.944 106.468 209.408 106.764 209.728C107.068 210.04 107.468 210.196 107.964 210.196Z" fill="white"/>
<path d="M112.574 211C112.494 211 112.426 210.976 112.37 210.928C112.322 210.872 112.298 210.804 112.298 210.724V205.048C112.298 204.968 112.322 204.9 112.37 204.844C112.426 204.788 112.494 204.76 112.574 204.76H113.126C113.206 204.76 113.274 204.788 113.33 204.844C113.386 204.9 113.414 204.968 113.414 205.048V205.576C113.574 205.304 113.794 205.1 114.074 204.964C114.354 204.828 114.69 204.76 115.082 204.76H115.562C115.642 204.76 115.706 204.788 115.754 204.844C115.802 204.892 115.826 204.956 115.826 205.036V205.528C115.826 205.608 115.802 205.672 115.754 205.72C115.706 205.768 115.642 205.792 115.562 205.792H114.842C114.41 205.792 114.07 205.92 113.822 206.176C113.574 206.424 113.45 206.764 113.45 207.196V210.724C113.45 210.804 113.422 210.872 113.366 210.928C113.31 210.976 113.242 211 113.162 211H112.574Z" fill="white"/>
<path d="M122.721 211.12C122.017 211.12 121.417 210.988 120.921 210.724C120.433 210.46 120.057 210.088 119.793 209.608C119.537 209.128 119.393 208.564 119.361 207.916C119.353 207.564 119.349 207.192 119.349 206.8C119.349 206.4 119.353 206.02 119.361 205.66C119.393 205.012 119.537 204.452 119.793 203.98C120.057 203.508 120.437 203.14 120.933 202.876C121.429 202.612 122.025 202.48 122.721 202.48C123.289 202.48 123.781 202.56 124.197 202.72C124.613 202.88 124.953 203.084 125.217 203.332C125.489 203.572 125.689 203.824 125.817 204.088C125.953 204.352 126.025 204.584 126.033 204.784C126.041 204.856 126.021 204.916 125.973 204.964C125.925 205.004 125.861 205.024 125.781 205.024H125.073C124.993 205.024 124.933 205.008 124.893 204.976C124.861 204.944 124.829 204.888 124.797 204.808C124.725 204.6 124.605 204.396 124.437 204.196C124.277 203.996 124.057 203.832 123.777 203.704C123.505 203.568 123.153 203.5 122.721 203.5C122.089 203.5 121.577 203.672 121.185 204.016C120.801 204.36 120.593 204.928 120.561 205.72C120.537 206.432 120.537 207.144 120.561 207.856C120.593 208.656 120.805 209.232 121.197 209.584C121.589 209.928 122.101 210.1 122.733 210.1C123.157 210.1 123.533 210.024 123.861 209.872C124.197 209.712 124.461 209.468 124.653 209.14C124.845 208.812 124.941 208.396 124.941 207.892V207.388H123.141C123.061 207.388 122.993 207.364 122.937 207.316C122.889 207.26 122.865 207.188 122.865 207.1V206.716C122.865 206.628 122.889 206.56 122.937 206.512C122.993 206.456 123.061 206.428 123.141 206.428H125.853C125.941 206.428 126.009 206.456 126.057 206.512C126.105 206.56 126.129 206.628 126.129 206.716V207.868C126.129 208.524 125.993 209.096 125.721 209.584C125.457 210.072 125.069 210.452 124.557 210.724C124.045 210.988 123.433 211.12 122.721 211.12Z" fill="white"/>
<path d="M129.425 211.12C129.025 211.12 128.661 211.04 128.333 210.88C128.005 210.72 127.741 210.504 127.541 210.232C127.341 209.96 127.241 209.652 127.241 209.308C127.241 208.756 127.465 208.316 127.913 207.988C128.361 207.66 128.945 207.444 129.665 207.34L131.453 207.088V206.74C131.453 206.356 131.341 206.056 131.117 205.84C130.901 205.624 130.545 205.516 130.049 205.516C129.689 205.516 129.397 205.588 129.173 205.732C128.957 205.876 128.805 206.06 128.717 206.284C128.669 206.404 128.585 206.464 128.465 206.464H127.925C127.837 206.464 127.769 206.44 127.721 206.392C127.681 206.336 127.661 206.272 127.661 206.2C127.661 206.08 127.705 205.932 127.793 205.756C127.889 205.58 128.033 205.408 128.225 205.24C128.417 205.072 128.661 204.932 128.957 204.82C129.261 204.7 129.629 204.64 130.061 204.64C130.541 204.64 130.945 204.704 131.273 204.832C131.601 204.952 131.857 205.116 132.041 205.324C132.233 205.532 132.369 205.768 132.449 206.032C132.537 206.296 132.581 206.564 132.581 206.836V210.724C132.581 210.804 132.553 210.872 132.497 210.928C132.449 210.976 132.385 211 132.305 211H131.753C131.665 211 131.597 210.976 131.549 210.928C131.501 210.872 131.477 210.804 131.477 210.724V210.208C131.373 210.352 131.233 210.496 131.057 210.64C130.881 210.776 130.661 210.892 130.397 210.988C130.133 211.076 129.809 211.12 129.425 211.12ZM129.677 210.22C130.005 210.22 130.305 210.152 130.577 210.016C130.849 209.872 131.061 209.652 131.213 209.356C131.373 209.06 131.453 208.688 131.453 208.24V207.904L130.061 208.108C129.493 208.188 129.065 208.324 128.777 208.516C128.489 208.7 128.345 208.936 128.345 209.224C128.345 209.448 128.409 209.636 128.537 209.788C128.673 209.932 128.841 210.04 129.041 210.112C129.249 210.184 129.461 210.22 129.677 210.22Z" fill="white"/>
<path d="M134.582 211C134.502 211 134.434 210.976 134.378 210.928C134.33 210.872 134.306 210.804 134.306 210.724V205.036C134.306 204.956 134.33 204.892 134.378 204.844C134.434 204.788 134.502 204.76 134.582 204.76H135.122C135.202 204.76 135.266 204.788 135.314 204.844C135.37 204.892 135.398 204.956 135.398 205.036V205.456C135.582 205.208 135.814 205.012 136.094 204.868C136.374 204.716 136.71 204.64 137.102 204.64C138.006 204.632 138.646 205 139.022 205.744C139.206 205.408 139.474 205.14 139.826 204.94C140.178 204.74 140.578 204.64 141.026 204.64C141.442 204.64 141.818 204.736 142.154 204.928C142.498 205.12 142.766 205.412 142.958 205.804C143.158 206.188 143.258 206.672 143.258 207.256V210.724C143.258 210.804 143.23 210.872 143.174 210.928C143.126 210.976 143.062 211 142.982 211H142.418C142.338 211 142.27 210.976 142.214 210.928C142.166 210.872 142.142 210.804 142.142 210.724V207.364C142.142 206.916 142.078 206.564 141.95 206.308C141.822 206.052 141.65 205.872 141.434 205.768C141.218 205.664 140.982 205.612 140.726 205.612C140.518 205.612 140.306 205.664 140.09 205.768C139.874 205.872 139.694 206.052 139.55 206.308C139.414 206.564 139.346 206.916 139.346 207.364V210.724C139.346 210.804 139.318 210.872 139.262 210.928C139.214 210.976 139.15 211 139.07 211H138.506C138.426 211 138.358 210.976 138.302 210.928C138.254 210.872 138.23 210.804 138.23 210.724V207.364C138.23 206.916 138.162 206.564 138.026 206.308C137.89 206.052 137.714 205.872 137.498 205.768C137.282 205.664 137.054 205.612 136.814 205.612C136.606 205.612 136.394 205.664 136.178 205.768C135.962 205.872 135.782 206.052 135.638 206.308C135.502 206.564 135.434 206.912 135.434 207.352V210.724C135.434 210.804 135.406 210.872 135.35 210.928C135.302 210.976 135.238 211 135.158 211H134.582Z" fill="white"/>
<path d="M145.246 211C145.166 211 145.098 210.976 145.042 210.928C144.994 210.872 144.97 210.804 144.97 210.724V205.036C144.97 204.956 144.994 204.892 145.042 204.844C145.098 204.788 145.166 204.76 145.246 204.76H145.822C145.902 204.76 145.966 204.788 146.014 204.844C146.062 204.892 146.086 204.956 146.086 205.036V210.724C146.086 210.804 146.062 210.872 146.014 210.928C145.966 210.976 145.902 211 145.822 211H145.246ZM145.15 203.596C145.07 203.596 145.002 203.572 144.946 203.524C144.898 203.468 144.874 203.4 144.874 203.32V202.672C144.874 202.592 144.898 202.528 144.946 202.48C145.002 202.424 145.07 202.396 145.15 202.396H145.906C145.986 202.396 146.05 202.424 146.098 202.48C146.154 202.528 146.182 202.592 146.182 202.672V203.32C146.182 203.4 146.154 203.468 146.098 203.524C146.05 203.572 145.986 203.596 145.906 203.596H145.15Z" fill="white"/>
<path d="M148.269 211C148.189 211 148.121 210.976 148.065 210.928C148.017 210.872 147.993 210.804 147.993 210.724V205.036C147.993 204.956 148.017 204.892 148.065 204.844C148.121 204.788 148.189 204.76 148.269 204.76H148.833C148.913 204.76 148.977 204.788 149.025 204.844C149.081 204.892 149.109 204.956 149.109 205.036V205.564C149.317 205.292 149.577 205.072 149.889 204.904C150.209 204.728 150.617 204.64 151.113 204.64C151.633 204.64 152.073 204.756 152.433 204.988C152.801 205.212 153.077 205.528 153.261 205.936C153.445 206.336 153.537 206.804 153.537 207.34V210.724C153.537 210.804 153.513 210.872 153.465 210.928C153.417 210.976 153.353 211 153.273 211H152.673C152.593 211 152.525 210.976 152.469 210.928C152.421 210.872 152.397 210.804 152.397 210.724V207.4C152.397 206.84 152.261 206.404 151.989 206.092C151.717 205.772 151.317 205.612 150.789 205.612C150.293 205.612 149.893 205.772 149.589 206.092C149.293 206.404 149.145 206.84 149.145 207.4V210.724C149.145 210.804 149.117 210.872 149.061 210.928C149.013 210.976 148.949 211 148.869 211H148.269Z" fill="white"/>
<path d="M157.827 213.64C157.283 213.64 156.835 213.568 156.483 213.424C156.139 213.28 155.867 213.104 155.667 212.896C155.475 212.696 155.335 212.492 155.247 212.284C155.167 212.084 155.123 211.924 155.115 211.804C155.107 211.724 155.131 211.656 155.187 211.6C155.251 211.544 155.319 211.516 155.391 211.516H155.967C156.039 211.516 156.099 211.532 156.147 211.564C156.195 211.596 156.235 211.664 156.267 211.768C156.315 211.888 156.387 212.02 156.483 212.164C156.579 212.316 156.727 212.444 156.927 212.548C157.127 212.66 157.407 212.716 157.767 212.716C158.143 212.716 158.459 212.664 158.715 212.56C158.971 212.464 159.163 212.288 159.291 212.032C159.427 211.784 159.495 211.44 159.495 211V210.184C159.303 210.432 159.051 210.64 158.739 210.808C158.427 210.968 158.035 211.048 157.563 211.048C157.115 211.048 156.731 210.972 156.411 210.82C156.091 210.66 155.827 210.448 155.619 210.184C155.419 209.912 155.267 209.604 155.163 209.26C155.067 208.916 155.011 208.556 154.995 208.18C154.987 207.956 154.987 207.736 154.995 207.52C155.011 207.144 155.067 206.784 155.163 206.44C155.267 206.096 155.419 205.788 155.619 205.516C155.827 205.244 156.091 205.032 156.411 204.88C156.731 204.72 157.115 204.64 157.563 204.64C158.043 204.64 158.439 204.732 158.751 204.916C159.071 205.092 159.331 205.308 159.531 205.564V205.048C159.531 204.968 159.555 204.9 159.603 204.844C159.659 204.788 159.727 204.76 159.807 204.76H160.359C160.439 204.76 160.507 204.788 160.563 204.844C160.619 204.9 160.647 204.968 160.647 205.048V210.868C160.647 211.404 160.555 211.88 160.371 212.296C160.195 212.712 159.899 213.04 159.483 213.28C159.075 213.52 158.523 213.64 157.827 213.64ZM157.803 210.088C158.203 210.088 158.523 209.996 158.763 209.812C159.011 209.628 159.191 209.396 159.303 209.116C159.423 208.836 159.487 208.552 159.495 208.264C159.503 208.152 159.507 208.016 159.507 207.856C159.507 207.688 159.503 207.548 159.495 207.436C159.487 207.148 159.423 206.864 159.303 206.584C159.191 206.304 159.011 206.072 158.763 205.888C158.523 205.704 158.203 205.612 157.803 205.612C157.403 205.612 157.083 205.704 156.843 205.888C156.603 206.064 156.431 206.3 156.327 206.596C156.223 206.884 156.163 207.196 156.147 207.532C156.139 207.74 156.139 207.952 156.147 208.168C156.163 208.504 156.223 208.82 156.327 209.116C156.431 209.404 156.603 209.64 156.843 209.824C157.083 210 157.403 210.088 157.803 210.088Z" fill="white"/>
</svg>
